%TF.GenerationSoftware,KiCad,Pcbnew,(5.1.8-0-10_14)*%
%TF.CreationDate,2022-01-05T18:09:54+08:00*%
%TF.ProjectId,MicroMouse,4d696372-6f4d-46f7-9573-652e6b696361,rev?*%
%TF.SameCoordinates,Original*%
%TF.FileFunction,Copper,L2,Bot*%
%TF.FilePolarity,Positive*%
%FSLAX46Y46*%
G04 Gerber Fmt 4.6, Leading zero omitted, Abs format (unit mm)*
G04 Created by KiCad (PCBNEW (5.1.8-0-10_14)) date 2022-01-05 18:09:54*
%MOMM*%
%LPD*%
G01*
G04 APERTURE LIST*
%TA.AperFunction,ComponentPad*%
%ADD10C,1.500000*%
%TD*%
%TA.AperFunction,ComponentPad*%
%ADD11R,1.500000X1.500000*%
%TD*%
%TA.AperFunction,ComponentPad*%
%ADD12C,1.200000*%
%TD*%
%TA.AperFunction,ComponentPad*%
%ADD13R,1.200000X1.200000*%
%TD*%
%TA.AperFunction,ComponentPad*%
%ADD14C,0.100000*%
%TD*%
%TA.AperFunction,ComponentPad*%
%ADD15O,1.200000X0.800000*%
%TD*%
%TA.AperFunction,ComponentPad*%
%ADD16R,1.200000X0.800000*%
%TD*%
%TA.AperFunction,SMDPad,CuDef*%
%ADD17R,0.787000X0.864000*%
%TD*%
%TA.AperFunction,SMDPad,CuDef*%
%ADD18R,0.575000X1.140000*%
%TD*%
%TA.AperFunction,SMDPad,CuDef*%
%ADD19R,0.500000X0.800000*%
%TD*%
%TA.AperFunction,SMDPad,CuDef*%
%ADD20R,2.000000X0.600000*%
%TD*%
%TA.AperFunction,SMDPad,CuDef*%
%ADD21R,0.700000X1.000000*%
%TD*%
%TA.AperFunction,SMDPad,CuDef*%
%ADD22R,1.000000X0.700000*%
%TD*%
%TA.AperFunction,SMDPad,CuDef*%
%ADD23R,0.864000X0.787000*%
%TD*%
%TA.AperFunction,SMDPad,CuDef*%
%ADD24R,2.200000X1.000000*%
%TD*%
%TA.AperFunction,ViaPad*%
%ADD25C,0.600000*%
%TD*%
%TA.AperFunction,ViaPad*%
%ADD26C,0.800000*%
%TD*%
%TA.AperFunction,Conductor*%
%ADD27C,0.508000*%
%TD*%
%TA.AperFunction,Conductor*%
%ADD28C,0.254000*%
%TD*%
%TA.AperFunction,Conductor*%
%ADD29C,0.381000*%
%TD*%
%TA.AperFunction,Conductor*%
%ADD30C,0.250000*%
%TD*%
%TA.AperFunction,Conductor*%
%ADD31C,0.762000*%
%TD*%
%TA.AperFunction,Conductor*%
%ADD32C,0.200000*%
%TD*%
%TA.AperFunction,Conductor*%
%ADD33C,1.270000*%
%TD*%
G04 APERTURE END LIST*
D10*
X82189460Y-84541500D03*
X82189460Y-87081500D03*
X82189460Y-89621500D03*
D11*
X82189460Y-92161500D03*
D12*
X81604240Y-81196320D03*
D13*
X83604240Y-81196320D03*
%TA.AperFunction,ComponentPad*%
G36*
G01*
X72887034Y-102429010D02*
X72524510Y-102598058D01*
G75*
G02*
X71992940Y-102404582I-169047J362523D01*
G01*
X71992940Y-102404582D01*
G75*
G02*
X72186416Y-101873012I362523J169047D01*
G01*
X72548940Y-101703964D01*
G75*
G02*
X73080510Y-101897440I169047J-362523D01*
G01*
X73080510Y-101897440D01*
G75*
G02*
X72887034Y-102429010I-362523J-169047D01*
G01*
G37*
%TD.AperFunction*%
%TA.AperFunction,ComponentPad*%
G36*
G01*
X71813584Y-100126988D02*
X71451060Y-100296036D01*
G75*
G02*
X70919490Y-100102560I-169047J362523D01*
G01*
X70919490Y-100102560D01*
G75*
G02*
X71112966Y-99570990I362523J169047D01*
G01*
X71475490Y-99401942D01*
G75*
G02*
X72007060Y-99595418I169047J-362523D01*
G01*
X72007060Y-99595418D01*
G75*
G02*
X71813584Y-100126988I-362523J-169047D01*
G01*
G37*
%TD.AperFunction*%
%TA.AperFunction,ComponentPad*%
G36*
G01*
X71276859Y-98975977D02*
X70914335Y-99145025D01*
G75*
G02*
X70382765Y-98951549I-169047J362523D01*
G01*
X70382765Y-98951549D01*
G75*
G02*
X70576241Y-98419979I362523J169047D01*
G01*
X70938765Y-98250931D01*
G75*
G02*
X71470335Y-98444407I169047J-362523D01*
G01*
X71470335Y-98444407D01*
G75*
G02*
X71276859Y-98975977I-362523J-169047D01*
G01*
G37*
%TD.AperFunction*%
%TA.AperFunction,ComponentPad*%
D14*
G36*
X73786282Y-103410974D02*
G01*
X72698713Y-103918116D01*
X72360618Y-103193070D01*
X73448187Y-102685928D01*
X73786282Y-103410974D01*
G37*
%TD.AperFunction*%
D15*
X69000000Y-91270000D03*
X69000000Y-88730000D03*
X69000000Y-87460000D03*
D16*
X69000000Y-92540000D03*
%TA.AperFunction,ComponentPad*%
G36*
G01*
X70475490Y-80598058D02*
X70112966Y-80429010D01*
G75*
G02*
X69919490Y-79897440I169047J362523D01*
G01*
X69919490Y-79897440D01*
G75*
G02*
X70451060Y-79703964I362523J-169047D01*
G01*
X70813584Y-79873012D01*
G75*
G02*
X71007060Y-80404582I-169047J-362523D01*
G01*
X71007060Y-80404582D01*
G75*
G02*
X70475490Y-80598058I-362523J169047D01*
G01*
G37*
%TD.AperFunction*%
%TA.AperFunction,ComponentPad*%
G36*
G01*
X71548940Y-78296036D02*
X71186416Y-78126988D01*
G75*
G02*
X70992940Y-77595418I169047J362523D01*
G01*
X70992940Y-77595418D01*
G75*
G02*
X71524510Y-77401942I362523J-169047D01*
G01*
X71887034Y-77570990D01*
G75*
G02*
X72080510Y-78102560I-169047J-362523D01*
G01*
X72080510Y-78102560D01*
G75*
G02*
X71548940Y-78296036I-362523J169047D01*
G01*
G37*
%TD.AperFunction*%
%TA.AperFunction,ComponentPad*%
G36*
G01*
X72085665Y-77145025D02*
X71723141Y-76975977D01*
G75*
G02*
X71529665Y-76444407I169047J362523D01*
G01*
X71529665Y-76444407D01*
G75*
G02*
X72061235Y-76250931I362523J-169047D01*
G01*
X72423759Y-76419979D01*
G75*
G02*
X72617235Y-76951549I-169047J-362523D01*
G01*
X72617235Y-76951549D01*
G75*
G02*
X72085665Y-77145025I-362523J169047D01*
G01*
G37*
%TD.AperFunction*%
%TA.AperFunction,ComponentPad*%
D14*
G36*
X70301287Y-81918116D02*
G01*
X69213718Y-81410974D01*
X69551813Y-80685928D01*
X70639382Y-81193070D01*
X70301287Y-81918116D01*
G37*
%TD.AperFunction*%
D17*
X96844960Y-99926280D03*
X98394960Y-99926280D03*
D10*
X118859440Y-96017240D03*
X118859440Y-93517240D03*
X118859440Y-91017240D03*
X118859440Y-88517240D03*
D11*
X118859440Y-86017240D03*
D10*
X127640220Y-96052800D03*
X127640220Y-93552800D03*
X127640220Y-91052800D03*
X127640220Y-88552800D03*
D11*
X127640220Y-86052800D03*
D18*
X114133880Y-103733600D03*
X114958880Y-103733600D03*
D19*
X92986960Y-91594900D03*
X94886960Y-91594900D03*
X93936960Y-91594900D03*
X92986960Y-93794900D03*
X94886960Y-93794900D03*
X93936960Y-93794900D03*
D20*
X101799800Y-97386280D03*
X101799800Y-96116280D03*
X101799800Y-94846280D03*
X101799800Y-93576280D03*
X101799800Y-92306280D03*
X101799800Y-91036280D03*
X101799800Y-89766280D03*
X101799800Y-98656280D03*
X101799800Y-99926280D03*
X101799800Y-101196280D03*
X101799800Y-102466280D03*
X101799800Y-103736280D03*
X101799800Y-105006280D03*
X101799800Y-106276280D03*
X111199800Y-106276280D03*
X111199800Y-105006280D03*
X111199800Y-103736280D03*
X111199800Y-102466280D03*
X111199800Y-101196280D03*
X111199800Y-99926280D03*
X111199800Y-98656280D03*
X111199800Y-89766280D03*
X111199800Y-91036280D03*
X111199800Y-92306280D03*
X111199800Y-93576280D03*
X111199800Y-94846280D03*
X111199800Y-96116280D03*
X111199800Y-97386280D03*
D21*
X100079560Y-80731760D03*
X100079560Y-74731760D03*
X96379560Y-80731760D03*
X96379560Y-74731760D03*
X116575100Y-75140700D03*
X116575100Y-81140700D03*
X120275100Y-75140700D03*
X120275100Y-81140700D03*
D22*
X114031160Y-78807840D03*
X108031160Y-78807840D03*
X114031160Y-82507840D03*
X108031160Y-82507840D03*
D21*
X105522780Y-80686040D03*
X105522780Y-74686040D03*
X101822780Y-80686040D03*
X101822780Y-74686040D03*
D22*
X114074340Y-72683900D03*
X108074340Y-72683900D03*
X114074340Y-76383900D03*
X108074340Y-76383900D03*
D21*
X117514760Y-99953820D03*
X117514760Y-105953820D03*
X121214760Y-99953820D03*
X121214760Y-105953820D03*
D10*
X78117840Y-77005960D03*
X75617840Y-74505960D03*
X80617840Y-74505960D03*
X78117840Y-102948240D03*
X80617840Y-105448240D03*
X75617840Y-105448240D03*
X84943460Y-97442160D03*
X82443460Y-99942160D03*
X82443460Y-94942160D03*
D17*
X114246360Y-102229920D03*
X115796360Y-102229920D03*
X109674500Y-87564100D03*
X111224500Y-87564100D03*
X111221960Y-86228060D03*
X109671960Y-86228060D03*
D23*
X91899880Y-80944560D03*
X91899880Y-82494560D03*
X90576540Y-82497100D03*
X90576540Y-80947100D03*
D17*
X125062420Y-80454640D03*
X123512420Y-80454640D03*
X125052260Y-81795760D03*
X123502260Y-81795760D03*
D24*
X94383220Y-86404160D03*
X99683220Y-86404160D03*
X99683220Y-84604160D03*
X94383220Y-84604160D03*
D11*
X122753260Y-84417040D03*
D10*
X122753260Y-86957040D03*
X122753260Y-89497040D03*
X122753260Y-92037040D03*
X122753260Y-94577040D03*
X122753260Y-97117040D03*
D23*
X113842940Y-94482760D03*
X113842940Y-96032760D03*
X114127280Y-105407160D03*
X114127280Y-106957160D03*
X115460780Y-105397000D03*
X115460780Y-106947000D03*
X90600000Y-91045000D03*
X90600000Y-92595000D03*
X115178980Y-94472900D03*
X115178980Y-96022900D03*
D17*
X96842420Y-98585160D03*
X98392420Y-98585160D03*
X125375000Y-99930000D03*
X123825000Y-99930000D03*
D23*
X116512480Y-94462440D03*
X116512480Y-96012440D03*
X94663400Y-79207200D03*
X94663400Y-80757200D03*
D25*
X126270000Y-99930000D03*
X105100000Y-95560000D03*
X103340000Y-101200000D03*
X85390000Y-83860000D03*
X95820000Y-92630000D03*
X109532560Y-98656280D03*
X113030140Y-98656280D03*
X125628540Y-96225500D03*
X95021540Y-82753340D03*
X95021540Y-83401040D03*
X94660860Y-78260080D03*
X84760000Y-83860000D03*
X97932240Y-86761320D03*
X93934280Y-92984320D03*
X96855280Y-100820220D03*
X101569520Y-88229440D03*
X96500000Y-89020000D03*
X113192560Y-106956860D03*
X96306780Y-83710920D03*
X97002740Y-83708380D03*
X96306780Y-84376400D03*
X97002740Y-84384020D03*
X101821120Y-82313920D03*
X95971500Y-79748520D03*
X97929700Y-82915760D03*
X102021640Y-84609940D03*
X102019100Y-83959700D03*
X90718640Y-87866220D03*
X91678760Y-87863680D03*
X98135440Y-87530940D03*
X97477580Y-87528400D03*
X84790000Y-88560000D03*
X85430000Y-88560000D03*
X85430000Y-87890000D03*
X84790000Y-87910000D03*
X90580000Y-79550000D03*
D26*
X111269920Y-81356340D03*
X111269920Y-80297160D03*
X111269920Y-79253220D03*
X111269920Y-78196580D03*
X125095140Y-86972280D03*
D25*
X92196920Y-92631260D03*
X87772240Y-97962720D03*
X87777320Y-100000000D03*
X88181180Y-94010480D03*
X100009960Y-92306280D03*
X84401660Y-92516960D03*
X98013520Y-91307920D03*
X92986860Y-94569280D03*
X95605600Y-91597480D03*
X109532560Y-93576280D03*
X96624280Y-79347200D03*
X99276040Y-79829800D03*
X96624140Y-86824820D03*
X99640000Y-108220000D03*
X81168240Y-99067620D03*
X97610000Y-107440000D03*
X95370000Y-96440000D03*
X96800000Y-107420000D03*
X92986860Y-90800000D03*
X100213160Y-98656140D03*
X109532560Y-101196280D03*
X109532560Y-99926280D03*
X109532560Y-91033740D03*
X109532560Y-92306280D03*
X109532560Y-94846280D03*
X109532560Y-96116280D03*
X109532560Y-97386280D03*
X106990000Y-82510000D03*
X113100000Y-82510000D03*
X71772780Y-86995000D03*
X107000000Y-104394000D03*
X107000000Y-107000000D03*
X86600000Y-81500000D03*
X87465040Y-81503660D03*
X86601440Y-80680700D03*
X87465040Y-80680700D03*
X118410000Y-105960000D03*
X103402560Y-97400000D03*
X83000000Y-97500000D03*
X117522560Y-101120000D03*
X105530000Y-73640000D03*
X105520000Y-81750000D03*
X107020000Y-78810000D03*
X115050000Y-78810000D03*
D27*
X118281519Y-94721241D02*
X119909039Y-94721241D01*
X118033178Y-94472900D02*
X118281519Y-94721241D01*
X115178980Y-94472900D02*
X118033178Y-94472900D01*
X119909039Y-94721241D02*
X120860960Y-93769320D01*
X120860960Y-91389340D02*
X122753260Y-89497040D01*
X120860960Y-93769320D02*
X120860960Y-91389340D01*
X120968839Y-95781041D02*
X119909039Y-94721241D01*
X111199800Y-98656280D02*
X113030140Y-98656280D01*
X111199800Y-98656280D02*
X109532560Y-98656280D01*
X125631080Y-96228040D02*
X125628540Y-96225500D01*
X120968839Y-95781041D02*
X123799781Y-95781041D01*
X124244240Y-96225500D02*
X125628540Y-96225500D01*
X123799781Y-95781041D02*
X124244240Y-96225500D01*
D28*
X94663400Y-78262620D02*
X94660860Y-78260080D01*
X94663400Y-79207200D02*
X94663400Y-78262620D01*
D29*
X92712880Y-80944560D02*
X93441660Y-81673340D01*
X91899880Y-80944560D02*
X92712880Y-80944560D01*
X93441660Y-81673340D02*
X93441660Y-82189460D01*
X94005540Y-82753340D02*
X95021540Y-82753340D01*
X93441660Y-82189460D02*
X94005540Y-82753340D01*
X95021540Y-82753340D02*
X95811480Y-82753340D01*
X96379560Y-82185260D02*
X96379560Y-80731760D01*
X95811480Y-82753340D02*
X96379560Y-82185260D01*
X94701900Y-79207200D02*
X94707280Y-79212580D01*
X94663400Y-79207200D02*
X94701900Y-79207200D01*
D28*
X95021540Y-83401040D02*
X92882860Y-83401040D01*
X92882860Y-83401040D02*
X92420580Y-83863320D01*
X92420580Y-83863320D02*
X92420580Y-85841980D01*
X92982760Y-86404160D02*
X94383220Y-86404160D01*
X92420580Y-85841980D02*
X92982760Y-86404160D01*
D27*
X97932240Y-86149180D02*
X97932240Y-86761320D01*
X95907860Y-85808820D02*
X97591880Y-85808820D01*
X97591880Y-85808820D02*
X97932240Y-86149180D01*
X95312520Y-86404160D02*
X95907860Y-85808820D01*
X94383220Y-86404160D02*
X95312520Y-86404160D01*
D30*
X114137440Y-106947000D02*
X114127280Y-106957160D01*
X115460780Y-106947000D02*
X114137440Y-106947000D01*
X97932240Y-86149180D02*
X97932240Y-86006940D01*
X72536725Y-102151011D02*
X74904431Y-102151011D01*
X78201660Y-105448240D02*
X80617840Y-105448240D01*
X76020930Y-103141640D02*
X76020930Y-103267510D01*
X76020930Y-103267510D02*
X78201660Y-105448240D01*
X74904431Y-102151011D02*
X76020930Y-103267510D01*
D28*
X93936960Y-93794900D02*
X93936960Y-92987000D01*
X93936960Y-92987000D02*
X93934280Y-92984320D01*
X95465680Y-92984320D02*
X95820000Y-92630000D01*
X93934280Y-92984320D02*
X95465680Y-92984320D01*
D29*
X81070000Y-93280960D02*
X82189460Y-92161500D01*
X81070000Y-96677082D02*
X81070000Y-93280960D01*
D30*
X98437700Y-85501480D02*
X101117400Y-85501480D01*
X97932240Y-86006940D02*
X98437700Y-85501480D01*
D29*
X98282998Y-85501480D02*
X101117400Y-85501480D01*
X97932240Y-85852238D02*
X98282998Y-85501480D01*
X97932240Y-86761320D02*
X97932240Y-85852238D01*
X101117400Y-85506560D02*
X101569520Y-85958680D01*
X101117400Y-85501480D02*
X101117400Y-85506560D01*
X101569520Y-85958680D02*
X101569520Y-88229440D01*
D27*
X103336280Y-101196280D02*
X103340000Y-101200000D01*
X101799800Y-101196280D02*
X103336280Y-101196280D01*
D30*
X114127280Y-106957160D02*
X113192860Y-106957160D01*
X113192860Y-106957160D02*
X113192560Y-106956860D01*
D27*
X97231340Y-101196280D02*
X96855280Y-100820220D01*
X101799800Y-101196280D02*
X97231340Y-101196280D01*
X96855280Y-99936600D02*
X96844960Y-99926280D01*
X96855280Y-100820220D02*
X96855280Y-99936600D01*
X96844960Y-98587700D02*
X96842420Y-98585160D01*
X96844960Y-99926280D02*
X96844960Y-98587700D01*
D31*
X78647958Y-105448240D02*
X80617840Y-105448240D01*
X75304636Y-102104918D02*
X78647958Y-105448240D01*
X72627096Y-102104918D02*
X75304636Y-102104918D01*
X72581003Y-102151011D02*
X72627096Y-102104918D01*
X72536725Y-102151011D02*
X72581003Y-102151011D01*
X82443460Y-103622620D02*
X80617840Y-105448240D01*
X82443460Y-99942160D02*
X82443460Y-103622620D01*
X82443460Y-99038958D02*
X82443460Y-99942160D01*
X81112459Y-97707957D02*
X82443460Y-99038958D01*
X81112459Y-93238501D02*
X81112459Y-97707957D01*
X82189460Y-92161500D02*
X81112459Y-93238501D01*
X80858459Y-90830499D02*
X82189460Y-92161500D01*
X80858459Y-81942101D02*
X80858459Y-90830499D01*
X81604240Y-81196320D02*
X80858459Y-81942101D01*
X83419392Y-83860000D02*
X85390000Y-83860000D01*
X81604240Y-82044848D02*
X83419392Y-83860000D01*
X81604240Y-81196320D02*
X81604240Y-82044848D01*
X94663400Y-79207200D02*
X92402800Y-79207200D01*
X91899880Y-79710120D02*
X91899880Y-80944560D01*
X92402800Y-79207200D02*
X91899880Y-79710120D01*
X95398240Y-74731760D02*
X94660860Y-75469140D01*
X96379560Y-74731760D02*
X95398240Y-74731760D01*
D30*
X94660860Y-78260080D02*
X94660860Y-75469140D01*
D31*
X94660860Y-79204660D02*
X94663400Y-79207200D01*
X94660860Y-75469140D02*
X94660860Y-79204660D01*
D29*
X97550000Y-89020000D02*
X96500000Y-89020000D01*
X98340560Y-88229440D02*
X97550000Y-89020000D01*
X101569520Y-88229440D02*
X98340560Y-88229440D01*
D32*
X125375000Y-99930000D02*
X126270000Y-99930000D01*
D27*
X84760000Y-83860000D02*
X88450000Y-83860000D01*
X88450000Y-83860000D02*
X89880000Y-85290000D01*
X89880000Y-85290000D02*
X89880000Y-88740000D01*
X90600000Y-89460000D02*
X90600000Y-91045000D01*
X89880000Y-88740000D02*
X90600000Y-89460000D01*
D28*
X97002740Y-83708380D02*
X97002740Y-82890500D01*
D27*
X101821120Y-82313920D02*
X101377200Y-81870000D01*
X101377200Y-81870000D02*
X97470000Y-81870000D01*
X97024070Y-84362690D02*
X97002740Y-84384020D01*
X97024070Y-82315930D02*
X97024070Y-84362690D01*
X97470000Y-81870000D02*
X97024070Y-82315930D01*
X94383220Y-84604160D02*
X95705840Y-84604160D01*
X95933600Y-84376400D02*
X96306780Y-84376400D01*
X95705840Y-84604160D02*
X95933600Y-84376400D01*
D28*
X94962820Y-80757200D02*
X95971500Y-79748520D01*
X94663400Y-80757200D02*
X94962820Y-80757200D01*
X97929700Y-82915760D02*
X97929700Y-84221320D01*
X98312540Y-84604160D02*
X99683220Y-84604160D01*
X97929700Y-84221320D02*
X98312540Y-84604160D01*
D31*
X102015860Y-84604160D02*
X102021640Y-84609940D01*
X99683220Y-84604160D02*
X102015860Y-84604160D01*
D27*
X98987900Y-86404160D02*
X99683220Y-86404160D01*
X91676220Y-87866220D02*
X91678760Y-87863680D01*
X90718640Y-87866220D02*
X91676220Y-87866220D01*
X97142300Y-87863680D02*
X97477580Y-87528400D01*
X91678760Y-87863680D02*
X97142300Y-87863680D01*
X98135440Y-87530940D02*
X99469060Y-87530940D01*
X99683220Y-87316780D02*
X99683220Y-86404160D01*
X99469060Y-87530940D02*
X99683220Y-87316780D01*
X97480120Y-87530940D02*
X97477580Y-87528400D01*
X98135440Y-87530940D02*
X97480120Y-87530940D01*
D28*
X104020000Y-91670000D02*
X100020000Y-91670000D01*
X104000000Y-96750000D02*
X100000000Y-96750000D01*
D29*
X98394960Y-98587700D02*
X98392420Y-98585160D01*
X98394960Y-99926280D02*
X98394960Y-98587700D01*
D33*
X111269920Y-78196580D02*
X111269920Y-81356340D01*
D31*
X111269920Y-86180100D02*
X111221960Y-86228060D01*
D33*
X111269920Y-81356340D02*
X111269920Y-81922025D01*
D31*
X113842940Y-92377400D02*
X113842940Y-94482760D01*
D28*
X111221960Y-86228060D02*
X113515280Y-86228060D01*
X113515280Y-86228060D02*
X113842940Y-86555720D01*
D33*
X111269920Y-83220700D02*
X113842940Y-85793720D01*
X111269920Y-81356340D02*
X111269920Y-83220700D01*
X113842940Y-85793720D02*
X113842940Y-86555720D01*
D28*
X125062420Y-81785600D02*
X125052260Y-81795760D01*
X125062420Y-80454640D02*
X125062420Y-81785600D01*
X121692600Y-86957040D02*
X121329380Y-87320260D01*
X122753260Y-86957040D02*
X121692600Y-86957040D01*
X114264580Y-87320260D02*
X113842940Y-86898620D01*
X121329380Y-87320260D02*
X114264580Y-87320260D01*
D33*
X113842940Y-86898620D02*
X113842940Y-92377400D01*
X113842940Y-86555720D02*
X113842940Y-86898620D01*
D28*
X125052260Y-86929400D02*
X125095140Y-86972280D01*
X125052260Y-81795760D02*
X125052260Y-86929400D01*
X90581480Y-80942160D02*
X90576540Y-80947100D01*
D29*
X93290020Y-92631260D02*
X92621184Y-92631260D01*
X93936960Y-91984320D02*
X93290020Y-92631260D01*
X92621184Y-92631260D02*
X92196920Y-92631260D01*
X93936960Y-91594900D02*
X93936960Y-91984320D01*
X84790000Y-91610000D02*
X84790000Y-87910000D01*
D31*
X84790000Y-87910000D02*
X84790000Y-91310000D01*
X84790000Y-91310000D02*
X85630000Y-92150000D01*
X85630000Y-92150000D02*
X87380000Y-92150000D01*
X88181180Y-92951180D02*
X88181180Y-93929471D01*
D27*
X101799800Y-99926280D02*
X98394960Y-99926280D01*
D31*
X87772240Y-99994920D02*
X87777320Y-100000000D01*
X87772240Y-97962720D02*
X87772240Y-99994920D01*
X90576540Y-79553460D02*
X90580000Y-79550000D01*
X90576540Y-80947100D02*
X90576540Y-79553460D01*
D28*
X93939060Y-91592800D02*
X93936960Y-91594900D01*
D27*
X92160660Y-92595000D02*
X92196920Y-92631260D01*
X90600000Y-92595000D02*
X92160660Y-92595000D01*
D31*
X87380000Y-92150000D02*
X88181180Y-92951180D01*
X88537360Y-92595000D02*
X88181180Y-92951180D01*
X90600000Y-92595000D02*
X88537360Y-92595000D01*
D29*
X98392420Y-98585160D02*
X98392420Y-97367580D01*
X98392420Y-97367580D02*
X98392420Y-97287580D01*
X98392420Y-97367580D02*
X98392420Y-97147580D01*
X98790000Y-96750000D02*
X100000000Y-96750000D01*
X98392420Y-97147580D02*
X98790000Y-96750000D01*
X99660000Y-91670000D02*
X100020000Y-91670000D01*
X98130000Y-90140000D02*
X99660000Y-91670000D01*
X94350000Y-90140000D02*
X98130000Y-90140000D01*
X93936960Y-90553040D02*
X94350000Y-90140000D01*
X93936960Y-91594900D02*
X93936960Y-90553040D01*
X104020000Y-96730000D02*
X104000000Y-96750000D01*
X104020000Y-91670000D02*
X104020000Y-96730000D01*
D27*
X115169120Y-96032760D02*
X115178980Y-96022900D01*
X113842940Y-96032760D02*
X115169120Y-96032760D01*
X116502020Y-96022900D02*
X116512480Y-96012440D01*
X115178980Y-96022900D02*
X116502020Y-96022900D01*
X118854640Y-96012440D02*
X118859440Y-96017240D01*
X116512480Y-96012440D02*
X118854640Y-96012440D01*
X118859440Y-96017240D02*
X120167240Y-96017240D01*
X120167240Y-96017240D02*
X121010000Y-96860000D01*
X121010000Y-96860000D02*
X121010000Y-98090000D01*
X121010000Y-98090000D02*
X121640000Y-98720000D01*
X121640000Y-98720000D02*
X123590000Y-98720000D01*
X123825000Y-98955000D02*
X123825000Y-99930000D01*
X123590000Y-98720000D02*
X123825000Y-98955000D01*
X124973020Y-98720000D02*
X123590000Y-98720000D01*
X127640220Y-96052800D02*
X124973020Y-98720000D01*
D28*
X114958880Y-104557600D02*
X115077220Y-104675940D01*
X114958880Y-103733600D02*
X114958880Y-104557600D01*
X115460780Y-104749500D02*
X115460780Y-105397000D01*
X115387220Y-104675940D02*
X115460780Y-104749500D01*
X115077220Y-104675940D02*
X115387220Y-104675940D01*
X114958880Y-103067400D02*
X115796360Y-102229920D01*
X114958880Y-103733600D02*
X114958880Y-103067400D01*
X114127280Y-103740200D02*
X114133880Y-103733600D01*
X114127280Y-105407160D02*
X114127280Y-103740200D01*
X111202480Y-103733600D02*
X111199800Y-103736280D01*
X114133880Y-103733600D02*
X111202480Y-103733600D01*
D32*
X101799800Y-92306280D02*
X100009960Y-92306280D01*
D30*
X102499800Y-96116280D02*
X101799800Y-96116280D01*
D32*
X94886960Y-93794900D02*
X99100960Y-93794900D01*
X99100960Y-93794900D02*
X99476560Y-94170500D01*
X100554018Y-94170500D02*
X100559799Y-94176281D01*
X99476560Y-94170500D02*
X100554018Y-94170500D01*
X100559799Y-94176281D02*
X102995161Y-94176281D01*
X102995161Y-94176281D02*
X103251000Y-94432120D01*
X103251000Y-94432120D02*
X103251000Y-95930720D01*
X103065440Y-96116280D02*
X101799800Y-96116280D01*
X103251000Y-95930720D02*
X103065440Y-96116280D01*
X84401660Y-92516960D02*
X84401660Y-93545660D01*
X92140059Y-94610481D02*
X92853238Y-95323660D01*
X85288681Y-94610481D02*
X92140059Y-94610481D01*
X92853238Y-95323660D02*
X93146880Y-95323660D01*
X93146880Y-95323660D02*
X92867480Y-95323660D01*
X84401660Y-93723460D02*
X85288681Y-94610481D01*
X84401660Y-93545660D02*
X84401660Y-93723460D01*
X95679260Y-95323660D02*
X93146880Y-95323660D01*
D28*
X101799800Y-96116280D02*
X100976280Y-96116280D01*
D32*
X101799800Y-96116280D02*
X100896280Y-96116280D01*
X100103660Y-95323660D02*
X95679260Y-95323660D01*
X100896280Y-96116280D02*
X100103660Y-95323660D01*
X98123598Y-91307920D02*
X98013520Y-91307920D01*
X99721959Y-92906281D02*
X98123598Y-91307920D01*
X99721959Y-92908041D02*
X99721959Y-92906281D01*
X103251000Y-94432120D02*
X103251000Y-93187478D01*
X99729658Y-92915740D02*
X99721959Y-92908041D01*
X102979262Y-92915740D02*
X99729658Y-92915740D01*
X103251000Y-93187478D02*
X102979262Y-92915740D01*
D28*
X101797120Y-94843600D02*
X101799800Y-94846280D01*
X92986960Y-93794900D02*
X92986960Y-94569180D01*
X92986960Y-94569180D02*
X92986860Y-94569280D01*
D32*
X100599800Y-94846280D02*
X100522430Y-94923650D01*
X101799800Y-94846280D02*
X100599800Y-94846280D01*
X93341230Y-94923650D02*
X92986860Y-94569280D01*
X100522430Y-94923650D02*
X93341230Y-94923650D01*
D28*
X94889540Y-91597480D02*
X94886960Y-91594900D01*
X95605600Y-91597480D02*
X94889540Y-91597480D01*
D32*
X99824499Y-93576280D02*
X101799800Y-93576280D01*
X97670000Y-92130000D02*
X98378219Y-92130000D01*
X97137480Y-91597480D02*
X97670000Y-92130000D01*
X98378219Y-92130000D02*
X99824499Y-93576280D01*
X95605600Y-91597480D02*
X97137480Y-91597480D01*
D28*
X111199800Y-89766280D02*
X111199800Y-87441180D01*
X122753260Y-84417040D02*
X114000420Y-84417040D01*
X114000420Y-84417040D02*
X112397680Y-82814300D01*
X112397680Y-82814300D02*
X112397680Y-77553960D01*
X112397680Y-77553960D02*
X111843960Y-77000240D01*
X111843960Y-77000240D02*
X110695880Y-77000240D01*
X111224500Y-87525600D02*
X111224500Y-87564100D01*
X110501459Y-86802559D02*
X111224500Y-87525600D01*
X110501459Y-85556119D02*
X110501459Y-86802559D01*
X110307910Y-85362570D02*
X110501459Y-85556119D01*
X110307910Y-77388210D02*
X110307910Y-85362570D01*
X110695880Y-77000240D02*
X110307910Y-77388210D01*
X111199800Y-93576280D02*
X109532560Y-93576280D01*
D32*
X100589500Y-106265980D02*
X100599800Y-106276280D01*
X96148919Y-96359018D02*
X96148919Y-102108919D01*
X100305980Y-106265980D02*
X100589500Y-106265980D01*
X83801659Y-84906559D02*
X83801659Y-93689158D01*
X96148919Y-102108919D02*
X100305980Y-106265980D01*
X95514881Y-95724980D02*
X96148919Y-96359018D01*
X91974371Y-95010491D02*
X92688860Y-95724980D01*
X83801659Y-93689158D02*
X85122992Y-95010491D01*
X92688860Y-95724980D02*
X95514881Y-95724980D01*
X82189460Y-84541500D02*
X83436600Y-84541500D01*
X100599800Y-106276280D02*
X101799800Y-106276280D01*
X85122992Y-95010491D02*
X91974371Y-95010491D01*
X83436600Y-84541500D02*
X83801659Y-84906559D01*
D28*
X96624280Y-79347200D02*
X97213560Y-79347200D01*
X97213560Y-79347200D02*
X97706320Y-79839960D01*
X97716480Y-79829800D02*
X99276040Y-79829800D01*
X97706320Y-79839960D02*
X97716480Y-79829800D01*
X91897340Y-82497100D02*
X91899880Y-82494560D01*
X90576540Y-82497100D02*
X91897340Y-82497100D01*
X91966570Y-83208750D02*
X91966570Y-86271890D01*
X91899880Y-83142060D02*
X91966570Y-83208750D01*
X91899880Y-82494560D02*
X91899880Y-83142060D01*
X91966570Y-86271890D02*
X92925841Y-87231161D01*
X96217799Y-87231161D02*
X96624140Y-86824820D01*
X92925841Y-87231161D02*
X96217799Y-87231161D01*
X109674500Y-86230600D02*
X109671960Y-86228060D01*
X109674500Y-87564100D02*
X109674500Y-86230600D01*
D32*
X100079560Y-76320400D02*
X100079560Y-74731760D01*
X100793061Y-77033901D02*
X100079560Y-76320400D01*
X109368101Y-77033901D02*
X100793061Y-77033901D01*
X109880900Y-77546700D02*
X109368101Y-77033901D01*
X109880900Y-85176360D02*
X109880900Y-77546700D01*
X109671960Y-85385300D02*
X109880900Y-85176360D01*
X109671960Y-86228060D02*
X109671960Y-85385300D01*
D29*
X100079560Y-74731760D02*
X100079560Y-80731760D01*
D32*
X70900000Y-88110000D02*
X70250000Y-87460000D01*
X70250000Y-87460000D02*
X69000000Y-87460000D01*
X70900000Y-93580000D02*
X70900000Y-88110000D01*
X69590000Y-101233682D02*
X69590000Y-94890000D01*
X75006318Y-106650000D02*
X69590000Y-101233682D01*
X69590000Y-94890000D02*
X70900000Y-93580000D01*
X83890000Y-100180000D02*
X83890000Y-105600000D01*
X91285942Y-96620010D02*
X87369990Y-96620010D01*
X82840000Y-106650000D02*
X75006318Y-106650000D01*
X84777819Y-99292181D02*
X83890000Y-100180000D01*
X86159217Y-99292181D02*
X84777819Y-99292181D01*
X99640000Y-107297095D02*
X94948889Y-102605985D01*
X87080020Y-98371377D02*
X86159217Y-99292181D01*
X87369990Y-96620010D02*
X87080020Y-96909980D01*
X92425941Y-97760010D02*
X91285942Y-96620010D01*
X83890000Y-105600000D02*
X82840000Y-106650000D01*
X94320010Y-97760010D02*
X92425941Y-97760010D01*
X87080020Y-96909980D02*
X87080020Y-98371377D01*
X94948889Y-98388889D02*
X94320010Y-97760010D01*
X94948889Y-102605985D02*
X94948889Y-98388889D01*
X99640000Y-108220000D02*
X99640000Y-107297095D01*
D28*
X113598860Y-102229920D02*
X113355020Y-102473760D01*
X114246360Y-102229920D02*
X113598860Y-102229920D01*
X113355020Y-102473760D02*
X113347540Y-102466280D01*
X113347540Y-102466280D02*
X111199800Y-102466280D01*
D32*
X81168240Y-99067620D02*
X73286620Y-99067620D01*
X72916978Y-98697978D02*
X70926550Y-98697978D01*
X73286620Y-99067620D02*
X72916978Y-98697978D01*
X73270000Y-77894528D02*
X72073450Y-76697978D01*
X70879990Y-83630010D02*
X70879990Y-82344311D01*
X70460000Y-84050000D02*
X70879990Y-83630010D01*
X68484282Y-84050000D02*
X70460000Y-84050000D01*
X67630000Y-100405079D02*
X67630000Y-84904282D01*
X70879990Y-82344311D02*
X73270000Y-79954301D01*
X97610000Y-107864264D02*
X97424264Y-108050000D01*
X97424264Y-108050000D02*
X93355698Y-108050000D01*
X73270000Y-79954301D02*
X73270000Y-77894528D01*
X67630000Y-84904282D02*
X68484282Y-84050000D01*
X76144930Y-108920010D02*
X75280000Y-108055079D01*
X92485689Y-108920010D02*
X76144930Y-108920010D01*
X93355698Y-108050000D02*
X92485689Y-108920010D01*
X75280000Y-108055079D02*
X67630000Y-100405079D01*
X97610000Y-107440000D02*
X97610000Y-107864264D01*
X95370000Y-96440000D02*
X92838182Y-96440000D01*
X92838182Y-96440000D02*
X91808683Y-95410501D01*
X91808683Y-95410501D02*
X85429499Y-95410501D01*
X84943460Y-95896540D02*
X84943460Y-97442160D01*
X85429499Y-95410501D02*
X84943460Y-95896540D01*
X93420000Y-107420000D02*
X96800000Y-107420000D01*
X76310619Y-108520000D02*
X92320000Y-108520000D01*
X68639980Y-84460000D02*
X68099990Y-84999990D01*
X73870000Y-79920000D02*
X71280000Y-82510000D01*
X71280000Y-83810000D02*
X70630000Y-84460000D01*
X77240000Y-79920000D02*
X73870000Y-79920000D01*
X78117840Y-79042160D02*
X77240000Y-79920000D01*
X68099990Y-100309371D02*
X76310619Y-108520000D01*
X70630000Y-84460000D02*
X68639980Y-84460000D01*
X71280000Y-82510000D02*
X71280000Y-83810000D01*
X68099990Y-84999990D02*
X68099990Y-100309371D01*
X92320000Y-108520000D02*
X93420000Y-107420000D01*
X78117840Y-77005960D02*
X78117840Y-79042160D01*
D30*
X100213300Y-98656280D02*
X100213160Y-98656140D01*
X101799800Y-98656280D02*
X100213300Y-98656280D01*
X92986960Y-91594900D02*
X92986960Y-90650160D01*
X92986960Y-90650160D02*
X92986860Y-90650060D01*
D28*
X111199800Y-101196280D02*
X109532560Y-101196280D01*
X111199800Y-99926280D02*
X109532560Y-99926280D01*
X109535100Y-91036280D02*
X109532560Y-91033740D01*
X111199800Y-91036280D02*
X109535100Y-91036280D01*
X111199800Y-92306280D02*
X109532560Y-92306280D01*
X111199800Y-94846280D02*
X109532560Y-94846280D01*
X109532560Y-96116280D02*
X111199800Y-96116280D01*
X111199800Y-97386280D02*
X109532560Y-97386280D01*
X123830261Y-90960039D02*
X123830261Y-83511001D01*
X122753260Y-92037040D02*
X123830261Y-90960039D01*
X123502260Y-83183000D02*
X123502260Y-81795760D01*
X123830261Y-83511001D02*
X123502260Y-83183000D01*
X114785160Y-82507840D02*
X114031160Y-82507840D01*
X122854760Y-81795760D02*
X122142680Y-82507840D01*
X123502260Y-81795760D02*
X122854760Y-81795760D01*
X118806100Y-82501880D02*
X118800140Y-82507840D01*
X118800140Y-82507840D02*
X114785160Y-82507840D01*
X122142680Y-82507840D02*
X118800140Y-82507840D01*
X108031160Y-84168934D02*
X108031160Y-82507840D01*
X105842590Y-86357503D02*
X106108544Y-86091550D01*
X106108544Y-86091550D02*
X108031160Y-84168934D01*
X101799800Y-89766280D02*
X105366960Y-89766280D01*
X105842590Y-89290650D02*
X105842590Y-86357503D01*
X105366960Y-89766280D02*
X105842590Y-89290650D01*
X114031160Y-81903840D02*
X114031160Y-82507840D01*
X113204159Y-81076839D02*
X114031160Y-81903840D01*
X113204159Y-77858081D02*
X113204159Y-81076839D01*
X114074340Y-76987900D02*
X113204159Y-77858081D01*
X114074340Y-76383900D02*
X114074340Y-76987900D01*
D30*
X108074340Y-76383900D02*
X101593400Y-76383900D01*
X101593400Y-76383900D02*
X100934520Y-75725020D01*
X100934520Y-75725020D02*
X100934520Y-74151718D01*
X100934520Y-74151718D02*
X100934520Y-72102980D01*
X100934520Y-72102980D02*
X100037900Y-71206360D01*
X74063860Y-80380840D02*
X71775320Y-82669380D01*
X71775320Y-82669380D02*
X71775320Y-86995000D01*
D29*
X108074340Y-76383900D02*
X114074340Y-76383900D01*
D32*
X74063860Y-80380840D02*
X79929160Y-80380840D01*
X79929160Y-80380840D02*
X82410000Y-77900000D01*
X82410000Y-72300000D02*
X83503640Y-71206360D01*
X82410000Y-77900000D02*
X82410000Y-72300000D01*
D30*
X100037900Y-71206360D02*
X83503640Y-71206360D01*
D29*
X113102160Y-82507840D02*
X113100000Y-82510000D01*
X114031160Y-82507840D02*
X113102160Y-82507840D01*
X108029000Y-82510000D02*
X108031160Y-82507840D01*
X106990000Y-82510000D02*
X108029000Y-82510000D01*
D28*
X123512420Y-80493140D02*
X123512420Y-80454640D01*
X124284271Y-81264991D02*
X123512420Y-80493140D01*
X124284271Y-93046029D02*
X124284271Y-81264991D01*
X122753260Y-94577040D02*
X124284271Y-93046029D01*
X123512420Y-80454640D02*
X122202080Y-80454640D01*
X121516020Y-81140700D02*
X120275100Y-81140700D01*
X122202080Y-80454640D02*
X121516020Y-81140700D01*
X101822780Y-74686040D02*
X101822780Y-72792340D01*
X102608221Y-72006899D02*
X119436319Y-72006899D01*
X101822780Y-72792340D02*
X102608221Y-72006899D01*
X120275100Y-72845680D02*
X120275100Y-75140700D01*
X119436319Y-72006899D02*
X120275100Y-72845680D01*
D30*
X101822780Y-80836040D02*
X101822780Y-80686040D01*
X100601619Y-88854441D02*
X101879239Y-88854441D01*
X100083620Y-89372440D02*
X100601619Y-88854441D01*
X102745540Y-81758800D02*
X101822780Y-80836040D01*
X102745540Y-87988140D02*
X102745540Y-81758800D01*
X100083620Y-90570100D02*
X100083620Y-89372440D01*
X100549800Y-91036280D02*
X100083620Y-90570100D01*
X101879239Y-88854441D02*
X102745540Y-87988140D01*
X101799800Y-91036280D02*
X100549800Y-91036280D01*
D32*
X101799800Y-91036280D02*
X102999800Y-91036280D01*
X107000000Y-104394000D02*
X107000000Y-91531400D01*
X106504880Y-91036280D02*
X101799800Y-91036280D01*
X107000000Y-91531400D02*
X106504880Y-91036280D01*
X116512340Y-107335320D02*
X116138960Y-107708700D01*
X107000000Y-107541020D02*
X107000000Y-107000000D01*
X116512340Y-105566238D02*
X116512340Y-107335320D01*
X107167680Y-107708700D02*
X107000000Y-107541020D01*
X117077518Y-105001060D02*
X116512340Y-105566238D01*
X116138960Y-107708700D02*
X107167680Y-107708700D01*
X119712000Y-105001060D02*
X117077518Y-105001060D01*
X120664760Y-105953820D02*
X119712000Y-105001060D01*
X121214760Y-105953820D02*
X120664760Y-105953820D01*
D29*
X120275100Y-75140700D02*
X120275100Y-81140700D01*
D32*
X122753260Y-94577040D02*
X125377040Y-94577040D01*
X125377040Y-94577040D02*
X125670000Y-94870000D01*
X125670000Y-94870000D02*
X128570000Y-94870000D01*
X128570000Y-94870000D02*
X129000000Y-95300000D01*
X129000000Y-95300000D02*
X129000000Y-100420000D01*
X128225240Y-101194760D02*
X121214760Y-101194760D01*
X129000000Y-100420000D02*
X128225240Y-101194760D01*
D29*
X121214760Y-101194760D02*
X121214760Y-105953820D01*
X121214760Y-99953820D02*
X121214760Y-101194760D01*
D28*
X86601440Y-80680700D02*
X87465040Y-80680700D01*
D29*
X83911580Y-81503660D02*
X83604240Y-81196320D01*
X87465040Y-81503660D02*
X83911580Y-81503660D01*
X84119860Y-80680700D02*
X83604240Y-81196320D01*
X87465040Y-80680700D02*
X84119860Y-80680700D01*
D32*
X109999800Y-106276280D02*
X111199800Y-106276280D01*
X109772290Y-106048770D02*
X109999800Y-106276280D01*
X100350583Y-106876281D02*
X103039801Y-106876281D01*
X95748909Y-97788909D02*
X95748909Y-102274607D01*
X92690000Y-96880000D02*
X94840000Y-96880000D01*
X91620511Y-95810511D02*
X92690000Y-96880000D01*
X86280000Y-96300000D02*
X86769489Y-95810511D01*
X85827839Y-98492161D02*
X86280000Y-98040000D01*
X94840000Y-96880000D02*
X95748909Y-97788909D01*
X86769489Y-95810511D02*
X91620511Y-95810511D01*
X84092161Y-98492161D02*
X85827839Y-98492161D01*
X95748909Y-102274607D02*
X100350583Y-106876281D01*
X83600001Y-98000001D02*
X84092161Y-98492161D01*
X83600001Y-94053199D02*
X83600001Y-98000001D01*
X86280000Y-98040000D02*
X86280000Y-96300000D01*
X103039801Y-106876281D02*
X103867312Y-106048770D01*
X83401649Y-93854847D02*
X83600001Y-94053199D01*
X83250120Y-87081500D02*
X83401649Y-87233029D01*
X83401649Y-87233029D02*
X83401649Y-93854847D01*
X103867312Y-106048770D02*
X109772290Y-106048770D01*
X82189460Y-87081500D02*
X83250120Y-87081500D01*
D28*
X117514760Y-101112200D02*
X117522560Y-101120000D01*
X117514760Y-99953820D02*
X117514760Y-101112200D01*
X103388840Y-97386280D02*
X103402560Y-97400000D01*
X101799800Y-97386280D02*
X103388840Y-97386280D01*
D32*
X117514760Y-107115240D02*
X117514760Y-105953820D01*
X116490000Y-108140000D02*
X117514760Y-107115240D01*
X95348899Y-102440296D02*
X101048603Y-108140000D01*
X83000000Y-98300000D02*
X83592171Y-98892171D01*
X92591630Y-97360000D02*
X94720000Y-97360000D01*
X95348899Y-97988899D02*
X95348899Y-102440296D01*
X94720000Y-97360000D02*
X95348899Y-97988899D01*
X91451630Y-96220000D02*
X92591630Y-97360000D01*
X101048603Y-108140000D02*
X116490000Y-108140000D01*
X86925698Y-96220000D02*
X91451630Y-96220000D01*
X86680010Y-96465688D02*
X86925698Y-96220000D01*
X86680010Y-98205688D02*
X86680010Y-96465688D01*
X83000000Y-97500000D02*
X83000000Y-98300000D01*
X85993528Y-98892171D02*
X86680010Y-98205688D01*
X83592171Y-98892171D02*
X85993528Y-98892171D01*
D29*
X118403820Y-105953820D02*
X118410000Y-105960000D01*
X117514760Y-105953820D02*
X118403820Y-105953820D01*
D28*
X108074340Y-72683900D02*
X108074340Y-73934720D01*
X107323020Y-74686040D02*
X105522780Y-74686040D01*
X108074340Y-73934720D02*
X107323020Y-74686040D01*
D32*
X111199800Y-105006280D02*
X109723060Y-105006280D01*
X108932559Y-85559002D02*
X109480890Y-85010671D01*
X108932559Y-104215779D02*
X108932559Y-85559002D01*
X109723060Y-105006280D02*
X108932559Y-104215779D01*
X109480890Y-77802010D02*
X109112791Y-77433911D01*
X109480890Y-85010671D02*
X109480890Y-77802010D01*
X105522780Y-79986040D02*
X105519220Y-79982480D01*
X105522780Y-80686040D02*
X105522780Y-79986040D01*
X105519220Y-77692462D02*
X105777771Y-77433911D01*
X105519220Y-79982480D02*
X105519220Y-77692462D01*
X109112791Y-77433911D02*
X105777771Y-77433911D01*
D29*
X105522780Y-81747220D02*
X105520000Y-81750000D01*
X105522780Y-80686040D02*
X105522780Y-81747220D01*
X105522780Y-73647220D02*
X105530000Y-73640000D01*
X105522780Y-74686040D02*
X105522780Y-73647220D01*
X108074340Y-72683900D02*
X114074340Y-72683900D01*
D28*
X116514020Y-81140700D02*
X116575100Y-81140700D01*
X114031160Y-78807840D02*
X114181160Y-78807840D01*
X115971100Y-81140700D02*
X115968300Y-81137900D01*
X116575100Y-81140700D02*
X115971100Y-81140700D01*
X115971100Y-81140700D02*
X114940480Y-81140700D01*
X114031160Y-80231380D02*
X114031160Y-78807840D01*
X114940480Y-81140700D02*
X114031160Y-80231380D01*
D32*
X108731160Y-78807840D02*
X109080880Y-79157560D01*
X108031160Y-78807840D02*
X108731160Y-78807840D01*
X109080880Y-79157560D02*
X109080880Y-84844983D01*
X109080880Y-84844983D02*
X108532549Y-85393313D01*
X108532549Y-85393313D02*
X108532549Y-104288971D01*
X107815240Y-105006280D02*
X101799800Y-105006280D01*
X108532549Y-104288971D02*
X107815240Y-105006280D01*
D29*
X116575100Y-75140700D02*
X116575100Y-81140700D01*
X115047840Y-78807840D02*
X115050000Y-78810000D01*
X114031160Y-78807840D02*
X115047840Y-78807840D01*
X107022160Y-78807840D02*
X107020000Y-78810000D01*
X108031160Y-78807840D02*
X107022160Y-78807840D01*
M02*
