M48
; DRILL file {KiCad (5.1.8-0-10_14)} date Wednesday, January 05, 2022 at 06:05:52 PM
; FORMAT={-:-/ absolute / inch / decimal}
; #@! TF.CreationDate,2022-01-05T18:05:52+08:00
; #@! TF.GenerationSoftware,Kicad,Pcbnew,(5.1.8-0-10_14)
; #@! TF.FileFunction,Plated,1,2,PTH
FMAT,2
INCH
T1C0.0118
T2C0.0157
T3C0.0236
T4C0.0276
T5C0.0354
T6C0.0394
T7C0.0402
%
G90
G05
T1
X2.8257Y-3.425
X3.1956Y-3.9003
X3.2677Y-3.8386
X3.3229Y-3.6424
X3.337Y-3.3016
X3.3382Y-3.461
X3.3382Y-3.4866
X3.3618Y-3.3016
X3.3634Y-3.4602
X3.3634Y-3.4866
X3.4094Y-3.2087
X3.4095Y-3.1764
X3.4435Y-3.1764
X3.4435Y-3.2088
X3.4556Y-3.8568
X3.4558Y-3.937
X3.4717Y-3.7012
X3.5661Y-3.1319
X3.5716Y-3.4593
X3.6094Y-3.4592
X3.6298Y-3.6469
X3.6609Y-3.5748
X3.6609Y-3.7232
X3.6982Y-3.6608
X3.7268Y-3.0811
X3.741Y-3.258
X3.741Y-3.2835
X3.7547Y-3.7969
X3.764Y-3.6062
X3.7724Y-3.6469
X3.7784Y-3.1397
X3.7916Y-3.2957
X3.7916Y-3.3219
X3.7992Y-3.5047
X3.8041Y-3.4183
X3.8041Y-3.1239
X3.811Y-4.2291
X3.8132Y-3.9693
X3.819Y-3.2956
X3.819Y-3.3222
X3.8377Y-3.446
X3.8429Y-4.2299
X3.8555Y-3.2644
X3.8556Y-3.4158
X3.8588Y-3.5948
X3.8636Y-3.4461
X3.9085Y-3.1429
X3.9228Y-4.2606
X3.9374Y-3.6341
X3.9454Y-3.8841
X3.9988Y-3.4736
X4.0087Y-3.2407
X4.0165Y-3.3055
X4.0166Y-3.3311
X4.0685Y-3.9843
X4.071Y-3.8346
X4.1378Y-3.7622
X4.1543Y-3.2185
X4.1547Y-2.8992
X4.2122Y-3.2484
X4.2126Y-4.11
X4.2126Y-4.2126
X4.2134Y-3.1028
X4.3123Y-3.584
X4.3123Y-3.6341
X4.3123Y-3.6841
X4.3123Y-3.7341
X4.3123Y-3.7841
X4.3123Y-3.8341
X4.3123Y-3.8841
X4.3123Y-3.9341
X4.3123Y-3.9841
X4.45Y-3.8841
X4.4528Y-3.2484
X4.4564Y-4.2109
X4.5295Y-3.1028
X4.6269Y-3.9811
X4.6618Y-4.1717
X4.946Y-3.7884
X4.9713Y-3.9343
T2
X4.3807Y-3.0786
X4.3807Y-3.1202
X4.3807Y-3.1613
X4.3807Y-3.203
X4.925Y-3.4241
T3
X3.2128Y-3.1967
X3.2915Y-3.1967
T4
X2.753Y-3.2009
X2.7741Y-3.1556
X2.8164Y-3.0649
X2.8375Y-3.0196
X2.7165Y-3.4433
X2.7165Y-3.4933
X2.7165Y-3.5933
X2.7165Y-3.6433
X2.7924Y-3.8857
X2.8135Y-3.9311
X2.8558Y-4.0217
X2.8769Y-4.067
T5
X4.6795Y-3.3865
X4.6795Y-3.4849
X4.6795Y-3.5834
X4.6795Y-3.6818
X4.6795Y-3.7802
X5.0252Y-3.3879
X5.0252Y-3.4863
X5.0252Y-3.5848
X5.0252Y-3.6832
X5.0252Y-3.7816
T6
X2.9771Y-2.9333
X3.0755Y-3.0317
X3.1739Y-2.9333
X2.9771Y-4.1515
X3.0755Y-4.0531
X3.1739Y-4.1515
X3.2458Y-3.7379
X3.2458Y-3.9347
X3.3442Y-3.8363
T7
X3.2358Y-3.3284
X3.2358Y-3.4284
X3.2358Y-3.5284
X3.2358Y-3.6284
X4.8328Y-3.3235
X4.8328Y-3.4235
X4.8328Y-3.5235
X4.8328Y-3.6235
X4.8328Y-3.7235
X4.8328Y-3.8235
T0
M30
