%TF.GenerationSoftware,KiCad,Pcbnew,(5.1.8-0-10_14)*%
%TF.CreationDate,2022-01-05T18:09:54+08:00*%
%TF.ProjectId,MicroMouse,4d696372-6f4d-46f7-9573-652e6b696361,rev?*%
%TF.SameCoordinates,Original*%
%TF.FileFunction,Copper,L1,Top*%
%TF.FilePolarity,Positive*%
%FSLAX46Y46*%
G04 Gerber Fmt 4.6, Leading zero omitted, Abs format (unit mm)*
G04 Created by KiCad (PCBNEW (5.1.8-0-10_14)) date 2022-01-05 18:09:54*
%MOMM*%
%LPD*%
G01*
G04 APERTURE LIST*
%TA.AperFunction,ComponentPad*%
%ADD10C,1.500000*%
%TD*%
%TA.AperFunction,ComponentPad*%
%ADD11R,1.500000X1.500000*%
%TD*%
%TA.AperFunction,ComponentPad*%
%ADD12C,1.200000*%
%TD*%
%TA.AperFunction,ComponentPad*%
%ADD13R,1.200000X1.200000*%
%TD*%
%TA.AperFunction,ComponentPad*%
%ADD14C,0.100000*%
%TD*%
%TA.AperFunction,ComponentPad*%
%ADD15O,1.200000X0.800000*%
%TD*%
%TA.AperFunction,ComponentPad*%
%ADD16R,1.200000X0.800000*%
%TD*%
%TA.AperFunction,SMDPad,CuDef*%
%ADD17R,0.787000X0.864000*%
%TD*%
%TA.AperFunction,SMDPad,CuDef*%
%ADD18R,1.270000X0.700000*%
%TD*%
%TA.AperFunction,SMDPad,CuDef*%
%ADD19R,2.000000X0.600000*%
%TD*%
%TA.AperFunction,SMDPad,CuDef*%
%ADD20R,0.400000X0.950000*%
%TD*%
%TA.AperFunction,SMDPad,CuDef*%
%ADD21R,1.000000X0.700000*%
%TD*%
%TA.AperFunction,SMDPad,CuDef*%
%ADD22R,0.864000X0.787000*%
%TD*%
%TA.AperFunction,SMDPad,CuDef*%
%ADD23R,1.400000X1.200000*%
%TD*%
%TA.AperFunction,SMDPad,CuDef*%
%ADD24R,1.200000X1.200000*%
%TD*%
%TA.AperFunction,SMDPad,CuDef*%
%ADD25R,1.220000X0.910000*%
%TD*%
%TA.AperFunction,SMDPad,CuDef*%
%ADD26R,2.000000X2.000000*%
%TD*%
%TA.AperFunction,SMDPad,CuDef*%
%ADD27R,1.200000X1.140000*%
%TD*%
%TA.AperFunction,SMDPad,CuDef*%
%ADD28R,1.140000X1.200000*%
%TD*%
%TA.AperFunction,ViaPad*%
%ADD29C,0.600000*%
%TD*%
%TA.AperFunction,ViaPad*%
%ADD30C,0.800000*%
%TD*%
%TA.AperFunction,Conductor*%
%ADD31C,0.508000*%
%TD*%
%TA.AperFunction,Conductor*%
%ADD32C,0.250000*%
%TD*%
%TA.AperFunction,Conductor*%
%ADD33C,0.254000*%
%TD*%
%TA.AperFunction,Conductor*%
%ADD34C,0.381000*%
%TD*%
%TA.AperFunction,Conductor*%
%ADD35C,0.762000*%
%TD*%
%TA.AperFunction,Conductor*%
%ADD36C,0.200000*%
%TD*%
%TA.AperFunction,Conductor*%
%ADD37C,1.270000*%
%TD*%
G04 APERTURE END LIST*
D10*
X82189460Y-84541500D03*
X82189460Y-87081500D03*
X82189460Y-89621500D03*
D11*
X82189460Y-92161500D03*
D12*
X81604240Y-81196320D03*
D13*
X83604240Y-81196320D03*
%TA.AperFunction,ComponentPad*%
G36*
G01*
X72887034Y-102429010D02*
X72524510Y-102598058D01*
G75*
G02*
X71992940Y-102404582I-169047J362523D01*
G01*
X71992940Y-102404582D01*
G75*
G02*
X72186416Y-101873012I362523J169047D01*
G01*
X72548940Y-101703964D01*
G75*
G02*
X73080510Y-101897440I169047J-362523D01*
G01*
X73080510Y-101897440D01*
G75*
G02*
X72887034Y-102429010I-362523J-169047D01*
G01*
G37*
%TD.AperFunction*%
%TA.AperFunction,ComponentPad*%
G36*
G01*
X71813584Y-100126988D02*
X71451060Y-100296036D01*
G75*
G02*
X70919490Y-100102560I-169047J362523D01*
G01*
X70919490Y-100102560D01*
G75*
G02*
X71112966Y-99570990I362523J169047D01*
G01*
X71475490Y-99401942D01*
G75*
G02*
X72007060Y-99595418I169047J-362523D01*
G01*
X72007060Y-99595418D01*
G75*
G02*
X71813584Y-100126988I-362523J-169047D01*
G01*
G37*
%TD.AperFunction*%
%TA.AperFunction,ComponentPad*%
G36*
G01*
X71276859Y-98975977D02*
X70914335Y-99145025D01*
G75*
G02*
X70382765Y-98951549I-169047J362523D01*
G01*
X70382765Y-98951549D01*
G75*
G02*
X70576241Y-98419979I362523J169047D01*
G01*
X70938765Y-98250931D01*
G75*
G02*
X71470335Y-98444407I169047J-362523D01*
G01*
X71470335Y-98444407D01*
G75*
G02*
X71276859Y-98975977I-362523J-169047D01*
G01*
G37*
%TD.AperFunction*%
%TA.AperFunction,ComponentPad*%
D14*
G36*
X73786282Y-103410974D02*
G01*
X72698713Y-103918116D01*
X72360618Y-103193070D01*
X73448187Y-102685928D01*
X73786282Y-103410974D01*
G37*
%TD.AperFunction*%
D15*
X69000000Y-91270000D03*
X69000000Y-88730000D03*
X69000000Y-87460000D03*
D16*
X69000000Y-92540000D03*
%TA.AperFunction,ComponentPad*%
G36*
G01*
X70475490Y-80598058D02*
X70112966Y-80429010D01*
G75*
G02*
X69919490Y-79897440I169047J362523D01*
G01*
X69919490Y-79897440D01*
G75*
G02*
X70451060Y-79703964I362523J-169047D01*
G01*
X70813584Y-79873012D01*
G75*
G02*
X71007060Y-80404582I-169047J-362523D01*
G01*
X71007060Y-80404582D01*
G75*
G02*
X70475490Y-80598058I-362523J169047D01*
G01*
G37*
%TD.AperFunction*%
%TA.AperFunction,ComponentPad*%
G36*
G01*
X71548940Y-78296036D02*
X71186416Y-78126988D01*
G75*
G02*
X70992940Y-77595418I169047J362523D01*
G01*
X70992940Y-77595418D01*
G75*
G02*
X71524510Y-77401942I362523J-169047D01*
G01*
X71887034Y-77570990D01*
G75*
G02*
X72080510Y-78102560I-169047J-362523D01*
G01*
X72080510Y-78102560D01*
G75*
G02*
X71548940Y-78296036I-362523J169047D01*
G01*
G37*
%TD.AperFunction*%
%TA.AperFunction,ComponentPad*%
G36*
G01*
X72085665Y-77145025D02*
X71723141Y-76975977D01*
G75*
G02*
X71529665Y-76444407I169047J362523D01*
G01*
X71529665Y-76444407D01*
G75*
G02*
X72061235Y-76250931I362523J-169047D01*
G01*
X72423759Y-76419979D01*
G75*
G02*
X72617235Y-76951549I-169047J-362523D01*
G01*
X72617235Y-76951549D01*
G75*
G02*
X72085665Y-77145025I-362523J169047D01*
G01*
G37*
%TD.AperFunction*%
%TA.AperFunction,ComponentPad*%
D14*
G36*
X70301287Y-81918116D02*
G01*
X69213718Y-81410974D01*
X69551813Y-80685928D01*
X70639382Y-81193070D01*
X70301287Y-81918116D01*
G37*
%TD.AperFunction*%
D10*
X118859440Y-96017240D03*
X118859440Y-93517240D03*
X118859440Y-91017240D03*
X118859440Y-88517240D03*
D11*
X118859440Y-86017240D03*
D17*
X78508700Y-86408400D03*
X80058700Y-86408400D03*
X78508700Y-85072360D03*
X80058700Y-85072360D03*
D10*
X127640220Y-96052800D03*
X127640220Y-93552800D03*
X127640220Y-91052800D03*
X127640220Y-88552800D03*
D11*
X127640220Y-86052800D03*
D18*
X96867440Y-90101400D03*
X96867440Y-91361400D03*
X96867440Y-92631400D03*
X96867440Y-95171400D03*
X96867440Y-96441400D03*
X96867440Y-97711400D03*
X91067440Y-97711400D03*
X91067440Y-96441400D03*
X91067440Y-95171400D03*
X91067440Y-90091400D03*
X91067440Y-91361400D03*
X91067440Y-92631400D03*
X96867440Y-93901400D03*
X91067440Y-93901400D03*
D19*
X113018440Y-85397480D03*
X113018440Y-86667480D03*
X113018440Y-87827480D03*
X113018440Y-89207480D03*
X113018440Y-90477480D03*
X113018440Y-91747480D03*
X113018440Y-93017480D03*
X113018440Y-94287480D03*
X113018440Y-95557480D03*
X103618440Y-95557480D03*
X103618440Y-94287480D03*
X103618440Y-93017480D03*
X103618440Y-91747480D03*
X103618440Y-90477480D03*
X103618440Y-89207480D03*
X103618440Y-87937480D03*
X103618440Y-86667480D03*
X103618440Y-85397480D03*
D20*
X95974400Y-81034060D03*
X96624400Y-81034060D03*
X97274400Y-81034060D03*
X97924400Y-81034060D03*
X97924400Y-85834060D03*
X97274400Y-85834060D03*
X95974400Y-85834060D03*
X96624400Y-85834060D03*
D21*
X77775200Y-91725500D03*
X71775200Y-91725500D03*
X77775200Y-88025500D03*
X71775200Y-88025500D03*
D10*
X78117840Y-77005960D03*
X75617840Y-74505960D03*
X80617840Y-74505960D03*
X78117840Y-102948240D03*
X80617840Y-105448240D03*
X75617840Y-105448240D03*
X84943460Y-97442160D03*
X82443460Y-99942160D03*
X82443460Y-94942160D03*
D22*
X82994500Y-105661760D03*
X82994500Y-104111760D03*
X73499980Y-75197000D03*
X73499980Y-73647000D03*
D17*
X70536100Y-84340700D03*
X68986100Y-84340700D03*
X69494100Y-96179640D03*
X71044100Y-96179640D03*
D22*
X73761600Y-106642200D03*
X73761600Y-105092200D03*
D17*
X76280980Y-80718660D03*
X77830980Y-80718660D03*
X74947480Y-101274880D03*
X76497480Y-101274880D03*
X68991180Y-85669120D03*
X70541180Y-85669120D03*
X71026320Y-94828360D03*
X69476320Y-94828360D03*
X85678980Y-91020900D03*
X87228980Y-91020900D03*
D22*
X93494860Y-87394080D03*
X93494860Y-85844080D03*
X99319220Y-89775000D03*
X99319220Y-88225000D03*
D17*
X100838440Y-84988540D03*
X99288440Y-84988540D03*
X99288440Y-83652500D03*
X100838440Y-83652500D03*
X100828280Y-80993120D03*
X99278280Y-80993120D03*
X99288440Y-82316460D03*
X100838440Y-82316460D03*
D23*
X87033720Y-82649200D03*
X89633720Y-81549200D03*
X89633720Y-83749200D03*
D11*
X122753260Y-84417040D03*
D10*
X122753260Y-86957040D03*
X122753260Y-89497040D03*
X122753260Y-92037040D03*
X122753260Y-94577040D03*
X122753260Y-97117040D03*
D24*
X77821500Y-79217520D03*
X75721500Y-79217520D03*
X76477840Y-99722940D03*
X74377840Y-99722940D03*
X87564940Y-92516960D03*
X85464940Y-92516960D03*
X84594700Y-105675140D03*
X84594700Y-103575140D03*
D25*
X92024340Y-84276580D03*
X92024340Y-81006580D03*
D26*
X87202400Y-86324580D03*
X91202400Y-86324580D03*
D17*
X87254380Y-94013020D03*
X85704380Y-94013020D03*
D27*
X85044420Y-84836180D03*
X85044420Y-86746180D03*
D28*
X101351180Y-86715080D03*
X99441180Y-86715080D03*
D22*
X94825820Y-87363300D03*
X94825820Y-85813300D03*
X100655260Y-88225000D03*
X100655260Y-89775000D03*
D27*
X93992840Y-83022540D03*
X93992840Y-81112540D03*
D29*
X126270000Y-99930000D03*
X105100000Y-95560000D03*
X103340000Y-101200000D03*
X85390000Y-83860000D03*
X95820000Y-92630000D03*
X109532560Y-98656280D03*
X113030140Y-98656280D03*
X125628540Y-96225500D03*
X95021540Y-82753340D03*
X95021540Y-83401040D03*
X94660860Y-78260080D03*
X84760000Y-83860000D03*
X97932240Y-86761320D03*
X93934280Y-92984320D03*
X96855280Y-100820220D03*
X101569520Y-88229440D03*
X96500000Y-89020000D03*
X113192560Y-106956860D03*
X96306780Y-83710920D03*
X97002740Y-83708380D03*
X96306780Y-84376400D03*
X97002740Y-84384020D03*
X101821120Y-82313920D03*
X95971500Y-79748520D03*
X97929700Y-82915760D03*
X102021640Y-84609940D03*
X102019100Y-83959700D03*
X90718640Y-87866220D03*
X91678760Y-87863680D03*
X98135440Y-87530940D03*
X97477580Y-87528400D03*
X84790000Y-88560000D03*
X85430000Y-88560000D03*
X85430000Y-87890000D03*
X84790000Y-87910000D03*
X90580000Y-79550000D03*
D30*
X111269920Y-81356340D03*
X111269920Y-80297160D03*
X111269920Y-79253220D03*
X111269920Y-78196580D03*
X125095140Y-86972280D03*
D29*
X92196920Y-92631260D03*
X87772240Y-97962720D03*
X87777320Y-100000000D03*
X88181180Y-94010480D03*
X100009960Y-92306280D03*
X84401660Y-92516960D03*
X98013520Y-91307920D03*
X92986860Y-94569280D03*
X95605600Y-91597480D03*
X109532560Y-93576280D03*
X96624280Y-79347200D03*
X99276040Y-79829800D03*
X96624140Y-86824820D03*
X99640000Y-108220000D03*
X81168240Y-99067620D03*
X97610000Y-107440000D03*
X95370000Y-96440000D03*
X96800000Y-107420000D03*
X92986860Y-90800000D03*
X100213160Y-98656140D03*
X109532560Y-101196280D03*
X109532560Y-99926280D03*
X109532560Y-91033740D03*
X109532560Y-92306280D03*
X109532560Y-94846280D03*
X109532560Y-96116280D03*
X109532560Y-97386280D03*
X106990000Y-82510000D03*
X113100000Y-82510000D03*
X71772780Y-86995000D03*
X107000000Y-104394000D03*
X107000000Y-107000000D03*
X86600000Y-81500000D03*
X87465040Y-81503660D03*
X86601440Y-80680700D03*
X87465040Y-80680700D03*
X118410000Y-105960000D03*
X103402560Y-97400000D03*
X83000000Y-97500000D03*
X117522560Y-101120000D03*
X105530000Y-73640000D03*
X105520000Y-81750000D03*
X107020000Y-78810000D03*
X115050000Y-78810000D03*
D31*
X109108296Y-98656280D02*
X109532560Y-98656280D01*
X103618440Y-95557480D02*
X104318440Y-95557480D01*
D32*
X69850000Y-88730000D02*
X69000000Y-88730000D01*
D33*
X100454179Y-85372801D02*
X100838440Y-84988540D01*
X100655260Y-87693760D02*
X100454179Y-87492679D01*
X100655260Y-88112440D02*
X100655260Y-87693760D01*
X98378400Y-85834060D02*
X97924400Y-85834060D01*
X98464919Y-85747541D02*
X98378400Y-85834060D01*
X99943541Y-85747541D02*
X98464919Y-85747541D01*
X99963823Y-85727259D02*
X99943541Y-85747541D01*
X100454179Y-85727259D02*
X99963823Y-85727259D01*
X100454179Y-85727259D02*
X100454179Y-85372801D01*
X100454179Y-87492679D02*
X100454179Y-85727259D01*
X97924400Y-86753480D02*
X97932240Y-86761320D01*
X97924400Y-85834060D02*
X97924400Y-86753480D01*
D32*
X100184780Y-80993120D02*
X100053140Y-81124760D01*
X100828280Y-80993120D02*
X100184780Y-80993120D01*
X100838440Y-84950040D02*
X100838440Y-84988540D01*
X100053140Y-84164740D02*
X100838440Y-84950040D01*
X100053140Y-81124760D02*
X100053140Y-84164740D01*
X93494860Y-87394080D02*
X93494860Y-87734140D01*
X97757660Y-92626180D02*
X97975420Y-92626180D01*
X97752440Y-92631400D02*
X97757660Y-92626180D01*
X96867440Y-92631400D02*
X97752440Y-92631400D01*
X93934280Y-97629980D02*
X93934280Y-92984320D01*
X93934280Y-97882850D02*
X93934280Y-97629980D01*
X95157579Y-99106149D02*
X93934280Y-97882850D01*
X96472170Y-99106150D02*
X95157579Y-99106149D01*
X96855280Y-99489260D02*
X96472170Y-99106150D01*
X96855280Y-100820220D02*
X96855280Y-99489260D01*
D31*
X113030140Y-98656280D02*
X121923720Y-98656280D01*
D33*
X96866040Y-92630000D02*
X96867440Y-92631400D01*
X95820000Y-92630000D02*
X96866040Y-92630000D01*
D34*
X85390000Y-83860000D02*
X84760000Y-83860000D01*
X93992840Y-83022540D02*
X93728999Y-82758699D01*
D35*
X124495700Y-89497040D02*
X125628540Y-90629880D01*
X122753260Y-89497040D02*
X124495700Y-89497040D01*
X125628540Y-90629880D02*
X125628540Y-96225500D01*
X125628540Y-97686000D02*
X124658260Y-98656280D01*
X125628540Y-96225500D02*
X125628540Y-97686000D01*
X113030140Y-98656280D02*
X124658260Y-98656280D01*
X121923720Y-105936280D02*
X120903140Y-106956860D01*
X121923720Y-98656280D02*
X121923720Y-105936280D01*
X120903140Y-106956860D02*
X113192560Y-106956860D01*
X106790000Y-101200000D02*
X103340000Y-101200000D01*
X108310000Y-102720000D02*
X106790000Y-101200000D01*
X108310000Y-106020000D02*
X108310000Y-102720000D01*
X109246860Y-106956860D02*
X108310000Y-106020000D01*
X113192560Y-106956860D02*
X109246860Y-106956860D01*
D31*
X103620960Y-95560000D02*
X103618440Y-95557480D01*
X105100000Y-95560000D02*
X103620960Y-95560000D01*
X107772016Y-98656280D02*
X109532560Y-98656280D01*
X105100000Y-95984264D02*
X107772016Y-98656280D01*
X105100000Y-95560000D02*
X105100000Y-95984264D01*
X102327480Y-95557480D02*
X103618440Y-95557480D01*
X101569520Y-94799520D02*
X102327480Y-95557480D01*
X101565080Y-88225000D02*
X101569520Y-88229440D01*
X100655260Y-88225000D02*
X101565080Y-88225000D01*
X96867440Y-92631400D02*
X98378600Y-92631400D01*
X101546761Y-91552279D02*
X101569520Y-91529520D01*
X99457721Y-91552279D02*
X101546761Y-91552279D01*
X101569520Y-91529520D02*
X101569520Y-94799520D01*
X101569520Y-88229440D02*
X101569520Y-91529520D01*
D33*
X98440529Y-90806967D02*
X99255000Y-91621438D01*
D31*
X99255000Y-91755000D02*
X99457721Y-91552279D01*
D33*
X99255000Y-91621438D02*
X99255000Y-91755000D01*
X98440529Y-89830529D02*
X98440529Y-90806967D01*
D31*
X98378600Y-92631400D02*
X99255000Y-91755000D01*
D35*
X94795040Y-87394080D02*
X94825820Y-87363300D01*
X93494860Y-87394080D02*
X94795040Y-87394080D01*
D31*
X93494860Y-87394080D02*
X93494860Y-87985140D01*
X93494860Y-87985140D02*
X92620000Y-88860000D01*
X92620000Y-88860000D02*
X90010000Y-88860000D01*
X90010000Y-88860000D02*
X89180000Y-88030000D01*
X88057800Y-84290482D02*
X88057800Y-83860000D01*
X89180000Y-85412682D02*
X88057800Y-84290482D01*
X89180000Y-88030000D02*
X89180000Y-85412682D01*
X84760000Y-83860000D02*
X88057800Y-83860000D01*
D35*
X84040980Y-94013020D02*
X82189460Y-92161500D01*
X85704380Y-94013020D02*
X84040980Y-94013020D01*
D31*
X71463275Y-101077561D02*
X72536725Y-102151011D01*
X71463275Y-99848989D02*
X71463275Y-101077561D01*
D35*
X68224198Y-91270000D02*
X69000000Y-91270000D01*
X67818999Y-97547975D02*
X67818999Y-91675199D01*
X67818999Y-91675199D02*
X68224198Y-91270000D01*
X70120013Y-99848989D02*
X67818999Y-97547975D01*
X71463275Y-99848989D02*
X70120013Y-99848989D01*
X69000000Y-91270000D02*
X69000000Y-88730000D01*
X70417182Y-80104918D02*
X70463275Y-80151011D01*
X69311150Y-80104918D02*
X70417182Y-80104918D01*
X67818990Y-81597078D02*
X69311150Y-80104918D01*
X67818990Y-87866347D02*
X67818990Y-81597078D01*
X68682643Y-88730000D02*
X67818990Y-87866347D01*
X69000000Y-88730000D02*
X68682643Y-88730000D01*
X71536725Y-79077561D02*
X70463275Y-80151011D01*
X71536725Y-77848989D02*
X71536725Y-79077561D01*
X75617840Y-75111136D02*
X75617840Y-74505960D01*
X72879987Y-77848989D02*
X75617840Y-75111136D01*
X71536725Y-77848989D02*
X72879987Y-77848989D01*
X81604240Y-78522478D02*
X81604240Y-81196320D01*
X77587722Y-74505960D02*
X81604240Y-78522478D01*
X75617840Y-74505960D02*
X77587722Y-74505960D01*
D31*
X96500000Y-89020000D02*
X95550000Y-89020000D01*
X94825820Y-88295820D02*
X94825820Y-87363300D01*
X95550000Y-89020000D02*
X94825820Y-88295820D01*
D33*
X96500000Y-89020000D02*
X97630000Y-89020000D01*
X97985000Y-89375000D02*
X98440529Y-89830529D01*
X97630000Y-89020000D02*
X97985000Y-89375000D01*
X97903700Y-89293700D02*
X97985000Y-89375000D01*
D34*
X84760000Y-84551760D02*
X85044420Y-84836180D01*
X84760000Y-83860000D02*
X84760000Y-84551760D01*
X85390000Y-84490600D02*
X85044420Y-84836180D01*
X85390000Y-83860000D02*
X85390000Y-84490600D01*
X94262040Y-82753340D02*
X93992840Y-83022540D01*
X95021540Y-82753340D02*
X94262040Y-82753340D01*
X94371340Y-83401040D02*
X93992840Y-83022540D01*
X95021540Y-83401040D02*
X94371340Y-83401040D01*
D31*
X93992840Y-83022540D02*
X93630300Y-82660000D01*
X88737118Y-82660000D02*
X88260000Y-83137118D01*
X93630300Y-82660000D02*
X88737118Y-82660000D01*
X88260000Y-83657800D02*
X88260000Y-83137118D01*
X88057800Y-83860000D02*
X88260000Y-83657800D01*
D36*
X126270000Y-98327460D02*
X125628540Y-97686000D01*
X126270000Y-99930000D02*
X126270000Y-98327460D01*
D34*
X97274400Y-81034060D02*
X97274400Y-82281020D01*
D33*
X100838440Y-82316460D02*
X100838440Y-83652500D01*
D31*
X101818580Y-82316460D02*
X101821120Y-82313920D01*
X100838440Y-82316460D02*
X101818580Y-82316460D01*
X97000200Y-83710920D02*
X97002740Y-83708380D01*
X96306780Y-83710920D02*
X97000200Y-83710920D01*
X97002740Y-83708380D02*
X97002740Y-84384020D01*
X96306780Y-83710920D02*
X96306780Y-84376400D01*
X96995120Y-84376400D02*
X97002740Y-84384020D01*
X96306780Y-84376400D02*
X96995120Y-84376400D01*
X93992840Y-81112540D02*
X94562540Y-81112540D01*
X96306780Y-82856780D02*
X96306780Y-83710920D01*
X94562540Y-81112540D02*
X96306780Y-82856780D01*
X93992840Y-79935982D02*
X93992840Y-81112540D01*
X95548822Y-78380000D02*
X93992840Y-79935982D01*
X97530000Y-78380000D02*
X95548822Y-78380000D01*
X97840000Y-78690000D02*
X97530000Y-78380000D01*
X97840000Y-79139362D02*
X97840000Y-78690000D01*
X97274400Y-79704962D02*
X97840000Y-79139362D01*
X97274400Y-81034060D02*
X97274400Y-79704962D01*
X97002740Y-82834838D02*
X97002740Y-84384020D01*
X97274400Y-82563178D02*
X97002740Y-82834838D01*
X97274400Y-81034060D02*
X97274400Y-82563178D01*
D35*
X91481720Y-81549200D02*
X92024340Y-81006580D01*
X89633720Y-81549200D02*
X91481720Y-81549200D01*
X93886880Y-81006580D02*
X93992840Y-81112540D01*
X92024340Y-81006580D02*
X93886880Y-81006580D01*
D33*
X95974400Y-79751420D02*
X95971500Y-79748520D01*
X95974400Y-81034060D02*
X95974400Y-79751420D01*
X99319220Y-89775000D02*
X100655260Y-89775000D01*
X95973900Y-85834560D02*
X95974400Y-85834060D01*
X96393640Y-88225000D02*
X99319220Y-88225000D01*
X95974400Y-87805760D02*
X96393640Y-88225000D01*
X95974400Y-85834060D02*
X95974400Y-87805760D01*
X95953640Y-85813300D02*
X95974400Y-85834060D01*
X94825820Y-85813300D02*
X95953640Y-85813300D01*
X97924400Y-82910460D02*
X97929700Y-82915760D01*
X97924400Y-81034060D02*
X97924400Y-82910460D01*
D31*
X102021640Y-85844620D02*
X101351180Y-86515080D01*
X102021640Y-84609940D02*
X102021640Y-85844620D01*
D35*
X102019100Y-84607400D02*
X102021640Y-84609940D01*
X102019100Y-83959700D02*
X102019100Y-84607400D01*
X102021640Y-86044620D02*
X101351180Y-86715080D01*
X102021640Y-84609940D02*
X102021640Y-86044620D01*
D31*
X99186438Y-86715080D02*
X99441180Y-86715080D01*
X98370578Y-87530940D02*
X99186438Y-86715080D01*
X98135440Y-87530940D02*
X98370578Y-87530940D01*
X91678760Y-86800940D02*
X91202400Y-86324580D01*
X91678760Y-87863680D02*
X91678760Y-86800940D01*
X90718640Y-86808340D02*
X91202400Y-86324580D01*
X90718640Y-87866220D02*
X90718640Y-86808340D01*
D35*
X86780800Y-86746180D02*
X87202400Y-86324580D01*
X85044420Y-86746180D02*
X86780800Y-86746180D01*
D37*
X85250160Y-72966720D02*
X87287240Y-70929640D01*
X87287240Y-70929640D02*
X108907720Y-70929640D01*
X108907720Y-70929640D02*
X111269920Y-73291840D01*
X111269920Y-73291840D02*
X111269920Y-78196580D01*
X111269920Y-81356340D02*
X111269920Y-81356340D01*
X111269920Y-80297160D02*
X111269920Y-81356340D01*
X111269920Y-79253220D02*
X111269920Y-80297160D01*
X111269920Y-78196580D02*
X111269920Y-79253220D01*
D33*
X125079900Y-86957040D02*
X125095140Y-86972280D01*
X122753260Y-86957040D02*
X125079900Y-86957040D01*
D35*
X83703300Y-83307060D02*
X85250160Y-81760200D01*
X85250160Y-81760200D02*
X85250160Y-80134600D01*
X83703300Y-85710862D02*
X83703300Y-83307060D01*
X84738618Y-86746180D02*
X83703300Y-85710862D01*
X85044420Y-86746180D02*
X84738618Y-86746180D01*
D33*
X85026640Y-74505960D02*
X85250160Y-74729480D01*
X80617840Y-74505960D02*
X85026640Y-74505960D01*
D37*
X85250160Y-74729480D02*
X85250160Y-72966720D01*
D33*
X85519540Y-79865220D02*
X85250160Y-80134600D01*
D32*
X74443600Y-106642200D02*
X74443900Y-106641900D01*
X73761600Y-106642200D02*
X74443600Y-106642200D01*
X74443600Y-106622480D02*
X74678540Y-106387540D01*
X74443600Y-106642200D02*
X74443600Y-106622480D01*
X74678540Y-106387540D02*
X75617840Y-105448240D01*
D36*
X76280980Y-81518464D02*
X76280980Y-80718660D01*
X78508700Y-83746184D02*
X76280980Y-81518464D01*
X92196780Y-92631400D02*
X92196920Y-92631260D01*
X91067440Y-92631400D02*
X92196780Y-92631400D01*
D34*
X88178640Y-94013020D02*
X88181180Y-94010480D01*
X87254380Y-94013020D02*
X88178640Y-94013020D01*
X83703300Y-83307060D02*
X81437340Y-83307060D01*
X78508700Y-83746184D02*
X78508700Y-85072360D01*
X78508700Y-83618198D02*
X76344973Y-81454471D01*
X78508700Y-83746184D02*
X78508700Y-83618198D01*
X76344973Y-80782653D02*
X76280980Y-80718660D01*
X76344973Y-81454471D02*
X76344973Y-80782653D01*
X76712001Y-80287639D02*
X76712001Y-78423019D01*
X76712001Y-78423019D02*
X76375731Y-78086749D01*
X76280980Y-80718660D02*
X76712001Y-80287639D01*
X74635831Y-78086749D02*
X74002900Y-78719680D01*
X76375731Y-78086749D02*
X74635831Y-78086749D01*
X74002900Y-78719680D02*
X74002900Y-80835400D01*
X70536100Y-84302200D02*
X70536100Y-84340700D01*
X74002900Y-80835400D02*
X70536100Y-84302200D01*
D31*
X83588860Y-91020900D02*
X82189460Y-89621500D01*
X85678980Y-91020900D02*
X83588860Y-91020900D01*
D34*
X86574439Y-93333079D02*
X87254380Y-94013020D01*
X86444979Y-91794979D02*
X86574439Y-91924439D01*
X86444979Y-91364979D02*
X86444979Y-91794979D01*
X86574439Y-91924439D02*
X86574439Y-93333079D01*
X86100900Y-91020900D02*
X86444979Y-91364979D01*
X85678980Y-91020900D02*
X86100900Y-91020900D01*
D35*
X83193459Y-95692159D02*
X82443460Y-94942160D01*
X85896543Y-95692159D02*
X83193459Y-95692159D01*
X87254380Y-94334322D02*
X85896543Y-95692159D01*
X87254380Y-94013020D02*
X87254380Y-94334322D01*
X87254380Y-97372050D02*
X87771100Y-97888770D01*
X87254380Y-94013020D02*
X87254380Y-97372050D01*
X88100171Y-94013020D02*
X88100171Y-94010480D01*
X87254380Y-94013020D02*
X88100171Y-94013020D01*
D31*
X78150343Y-101150419D02*
X76497302Y-102803460D01*
X83017123Y-101150419D02*
X78150343Y-101150419D01*
X84167542Y-100000000D02*
X83017123Y-101150419D01*
X87777320Y-100000000D02*
X84167542Y-100000000D01*
X75617840Y-102803460D02*
X74947480Y-102133100D01*
X76497302Y-102803460D02*
X75617840Y-102803460D01*
X74947480Y-102133100D02*
X74947480Y-101274880D01*
X75617840Y-102803460D02*
X75617840Y-105448240D01*
X74423880Y-106642200D02*
X75617840Y-105448240D01*
X73761600Y-106642200D02*
X74423880Y-106642200D01*
X78835918Y-105448240D02*
X75617840Y-105448240D01*
X80172398Y-104111760D02*
X78835918Y-105448240D01*
X82994500Y-104111760D02*
X80172398Y-104111760D01*
X73912578Y-101274880D02*
X74947480Y-101274880D01*
X73323839Y-100686141D02*
X73912578Y-101274880D01*
X73323839Y-98459379D02*
X73323839Y-100686141D01*
X71044100Y-96179640D02*
X73323839Y-98459379D01*
X71026320Y-96161860D02*
X71044100Y-96179640D01*
X71026320Y-94828360D02*
X71026320Y-96161860D01*
D35*
X79286839Y-73174959D02*
X80617840Y-74505960D01*
X74978959Y-73174959D02*
X79286839Y-73174959D01*
X74506918Y-73647000D02*
X74978959Y-73174959D01*
X73499980Y-73647000D02*
X74506918Y-73647000D01*
X70536100Y-85664040D02*
X70541180Y-85669120D01*
X70536100Y-84340700D02*
X70536100Y-85664040D01*
X78508700Y-85072360D02*
X78508700Y-86408400D01*
X90580000Y-79550000D02*
X85580000Y-79550000D01*
D37*
X85250160Y-79879840D02*
X85250160Y-74729480D01*
D35*
X85580000Y-79550000D02*
X85250160Y-79879840D01*
D37*
X85250160Y-80134600D02*
X85250160Y-79879840D01*
D31*
X85410000Y-87910000D02*
X85430000Y-87890000D01*
X84790000Y-87910000D02*
X85410000Y-87910000D01*
X85430000Y-87890000D02*
X85430000Y-88560000D01*
X84790000Y-87910000D02*
X84790000Y-88560000D01*
X84790000Y-88560000D02*
X85430000Y-88560000D01*
X84790000Y-87000600D02*
X85044420Y-86746180D01*
X84790000Y-87910000D02*
X84790000Y-87000600D01*
X85430000Y-87131760D02*
X85044420Y-86746180D01*
X85430000Y-87890000D02*
X85430000Y-87131760D01*
X80274000Y-83307060D02*
X78508700Y-85072360D01*
X83703300Y-83307060D02*
X80274000Y-83307060D01*
X113018440Y-95557480D02*
X115532040Y-95557480D01*
X115991800Y-96017240D02*
X118859440Y-96017240D01*
X115532040Y-95557480D02*
X115991800Y-96017240D01*
D34*
X89633720Y-83749200D02*
X90329200Y-83749200D01*
X90856580Y-84276580D02*
X92024340Y-84276580D01*
X90329200Y-83749200D02*
X90856580Y-84276580D01*
X92888340Y-84276580D02*
X93494860Y-84883100D01*
X92024340Y-84276580D02*
X92888340Y-84276580D01*
X93494860Y-84883100D02*
X93494860Y-85844080D01*
D31*
X84581320Y-105661760D02*
X84594700Y-105675140D01*
X82994500Y-105661760D02*
X84581320Y-105661760D01*
D36*
X101641070Y-98630350D02*
X101641070Y-107704629D01*
X101641070Y-107704629D02*
X100515699Y-108830000D01*
X100009960Y-96999240D02*
X101641070Y-98630350D01*
X100009960Y-92306280D02*
X100009960Y-96999240D01*
X84594700Y-103575140D02*
X84594700Y-103525300D01*
X84594700Y-103525300D02*
X87090000Y-101030000D01*
X87090000Y-101030000D02*
X93180000Y-101030000D01*
X93180000Y-101030000D02*
X94320000Y-102170000D01*
X94320000Y-108120000D02*
X95030000Y-108830000D01*
X94320000Y-102170000D02*
X94320000Y-108120000D01*
X100515699Y-108830000D02*
X95030000Y-108830000D01*
D33*
X87564260Y-92516280D02*
X87564940Y-92516960D01*
X87564260Y-90975180D02*
X87564260Y-92516280D01*
D36*
X98013520Y-90883656D02*
X98013520Y-91307920D01*
X98013520Y-90412480D02*
X98013520Y-90883656D01*
X97702440Y-90101400D02*
X98013520Y-90412480D01*
X96867440Y-90101400D02*
X97702440Y-90101400D01*
X85464940Y-92516960D02*
X84401660Y-92516960D01*
D33*
X76497480Y-99742580D02*
X76477840Y-99722940D01*
X76497480Y-101274880D02*
X76497480Y-99742580D01*
D36*
X92986860Y-94145016D02*
X92986860Y-94569280D01*
X92986860Y-92445820D02*
X92986860Y-94145016D01*
X91902440Y-91361400D02*
X92986860Y-92445820D01*
X91067440Y-91361400D02*
X91902440Y-91361400D01*
X75024330Y-98276450D02*
X74377840Y-98922940D01*
X82897451Y-98276450D02*
X75024330Y-98276450D01*
X83190780Y-98569780D02*
X82897451Y-98276450D01*
X88053182Y-98569780D02*
X83190780Y-98569780D01*
X88781181Y-97841781D02*
X88053182Y-98569780D01*
X74377840Y-98922940D02*
X74377840Y-99722940D01*
X91067440Y-91361400D02*
X90368600Y-91361400D01*
X91067440Y-91361400D02*
X90258600Y-91361400D01*
X90258600Y-91361400D02*
X89920000Y-91700000D01*
X89920000Y-91700000D02*
X89920000Y-93070000D01*
X89920000Y-93070000D02*
X88781181Y-94208819D01*
X88781181Y-94208819D02*
X88781181Y-97841781D01*
D33*
X77821500Y-80709180D02*
X77830980Y-80718660D01*
X77821500Y-79217520D02*
X77821500Y-80709180D01*
X75560479Y-79378541D02*
X75721500Y-79217520D01*
D36*
X91902440Y-90091400D02*
X91067440Y-90091400D01*
X95176901Y-90183261D02*
X91994301Y-90183261D01*
X95605600Y-90611960D02*
X95176901Y-90183261D01*
X91994301Y-90183261D02*
X91902440Y-90091400D01*
X95605600Y-91597480D02*
X95605600Y-90611960D01*
X75721500Y-80017520D02*
X75721500Y-79217520D01*
X78020000Y-87240000D02*
X77570000Y-86790000D01*
X80050000Y-87240000D02*
X78020000Y-87240000D01*
X75587479Y-81390661D02*
X75587479Y-80151541D01*
X83761400Y-90091400D02*
X83425000Y-89755000D01*
X77570000Y-86790000D02*
X77570000Y-83373182D01*
X75587479Y-80151541D02*
X75721500Y-80017520D01*
X81160000Y-88350000D02*
X80050000Y-87240000D01*
X83425000Y-88835000D02*
X82940000Y-88350000D01*
X82940000Y-88350000D02*
X81160000Y-88350000D01*
X83425000Y-89755000D02*
X83425000Y-88835000D01*
X77570000Y-83373182D02*
X75587479Y-81390661D01*
X91067440Y-90091400D02*
X83761400Y-90091400D01*
D33*
X110457120Y-93576280D02*
X109532560Y-93576280D01*
X110827960Y-92237700D02*
X110827960Y-93205440D01*
X110269539Y-91679279D02*
X110827960Y-92237700D01*
X109179879Y-91679279D02*
X110269539Y-91679279D01*
X108780720Y-91280120D02*
X109179879Y-91679279D01*
X108780720Y-87249140D02*
X108780720Y-91280120D01*
X110827960Y-93205440D02*
X110457120Y-93576280D01*
X108199060Y-86667480D02*
X108780720Y-87249140D01*
X103618440Y-86667480D02*
X108199060Y-86667480D01*
X110457120Y-94884762D02*
X110457120Y-93576280D01*
X112689398Y-97117040D02*
X110457120Y-94884762D01*
X122753260Y-97117040D02*
X112689398Y-97117040D01*
X81658600Y-85072360D02*
X82189460Y-84541500D01*
X80058700Y-85072360D02*
X81658600Y-85072360D01*
D32*
X113018440Y-89207480D02*
X112318440Y-89207480D01*
X112318440Y-89207480D02*
X112305740Y-89220180D01*
D33*
X113018440Y-89207480D02*
X112502374Y-89207480D01*
D34*
X111046929Y-87935969D02*
X112318440Y-89207480D01*
X112025673Y-83565673D02*
X111046930Y-84544416D01*
X114864327Y-83565673D02*
X112025673Y-83565673D01*
X116896491Y-81533509D02*
X114864327Y-83565673D01*
X111046930Y-84544416D02*
X111046929Y-87935969D01*
X126145504Y-81533510D02*
X116896491Y-81533509D01*
X129361731Y-84749737D02*
X126145504Y-81533510D01*
X129361731Y-91831289D02*
X129361731Y-84749737D01*
X127640220Y-93552800D02*
X129361731Y-91831289D01*
X112175538Y-87827480D02*
X113018440Y-87827480D01*
X111627939Y-84785079D02*
X111627939Y-87279881D01*
X115068491Y-84221509D02*
X112191509Y-84221509D01*
X117175481Y-82114519D02*
X115068491Y-84221509D01*
X112191509Y-84221509D02*
X111627939Y-84785079D01*
X128780721Y-84990399D02*
X125904841Y-82114519D01*
X111627939Y-87279881D02*
X112175538Y-87827480D01*
X128780721Y-89912299D02*
X128780721Y-84990399D01*
X125904841Y-82114519D02*
X117175481Y-82114519D01*
X127640220Y-91052800D02*
X128780721Y-89912299D01*
D33*
X113018440Y-86667480D02*
X112318440Y-86667480D01*
D34*
X113018440Y-86667480D02*
X112285538Y-86667480D01*
X126499719Y-84602971D02*
X126499719Y-87412299D01*
X126890221Y-87802801D02*
X127640220Y-88552800D01*
X117790381Y-83276539D02*
X125173287Y-83276539D01*
X125173287Y-83276539D02*
X126499719Y-84602971D01*
X126499719Y-87412299D02*
X126890221Y-87802801D01*
X114399440Y-86667480D02*
X117790381Y-83276539D01*
X113018440Y-86667480D02*
X114399440Y-86667480D01*
X117549719Y-82695529D02*
X125413949Y-82695529D01*
X127640220Y-84921800D02*
X127640220Y-86052800D01*
X114847768Y-85397480D02*
X117549719Y-82695529D01*
X125413949Y-82695529D02*
X127640220Y-84921800D01*
X113018440Y-85397480D02*
X114847768Y-85397480D01*
X115169680Y-93517240D02*
X118859440Y-93517240D01*
X114399440Y-94287480D02*
X115169680Y-93517240D01*
X113018440Y-94287480D02*
X114399440Y-94287480D01*
X115718680Y-91017240D02*
X118859440Y-91017240D01*
X113718440Y-93017480D02*
X115718680Y-91017240D01*
X113018440Y-93017480D02*
X113718440Y-93017480D01*
D32*
X113018440Y-91747480D02*
X113718440Y-91747480D01*
D34*
X116981582Y-88517240D02*
X118859440Y-88517240D01*
X113751342Y-91747480D02*
X116981582Y-88517240D01*
X113018440Y-91747480D02*
X113751342Y-91747480D01*
X118178680Y-86017240D02*
X118859440Y-86017240D01*
X113718440Y-90477480D02*
X118178680Y-86017240D01*
X113018440Y-90477480D02*
X113718440Y-90477480D01*
D33*
X96624280Y-81033940D02*
X96624400Y-81034060D01*
X96624280Y-79347200D02*
X96624280Y-81033940D01*
X99288440Y-81003280D02*
X99278280Y-80993120D01*
X99288440Y-82316460D02*
X99288440Y-81003280D01*
X99278280Y-79832040D02*
X99276040Y-79829800D01*
X99278280Y-80993120D02*
X99278280Y-79832040D01*
X98640940Y-84988540D02*
X99288440Y-84988540D01*
X97506318Y-84988540D02*
X98640940Y-84988540D01*
X97274400Y-85220458D02*
X97506318Y-84988540D01*
X97274400Y-85834060D02*
X97274400Y-85220458D01*
X99288440Y-84988540D02*
X99288440Y-83652500D01*
X96624400Y-86824560D02*
X96624140Y-86824820D01*
X96624400Y-85834060D02*
X96624400Y-86824560D01*
D36*
X69476320Y-93016320D02*
X69000000Y-92540000D01*
X69476320Y-94828360D02*
X69476320Y-93016320D01*
D33*
X69000000Y-85677940D02*
X68991180Y-85669120D01*
X69000000Y-87460000D02*
X69000000Y-85677940D01*
D36*
X96867440Y-97711400D02*
X97908600Y-97711400D01*
X100156422Y-97711400D02*
X101216060Y-98771038D01*
X96867440Y-97711400D02*
X100156422Y-97711400D01*
X100560000Y-108220000D02*
X99640000Y-108220000D01*
X101216060Y-107563940D02*
X100560000Y-108220000D01*
X101216060Y-98771038D02*
X101216060Y-107563940D01*
D32*
X73073450Y-104404050D02*
X73761600Y-105092200D01*
X73073450Y-103302022D02*
X73073450Y-104404050D01*
X70554846Y-98326274D02*
X70926550Y-98697978D01*
X69803619Y-97575047D02*
X70554846Y-98326274D01*
X69494100Y-96864169D02*
X69803619Y-97575047D01*
X69494100Y-96179640D02*
X69494100Y-96864169D01*
D36*
X90232440Y-93901400D02*
X91067440Y-93901400D01*
X90230040Y-93903800D02*
X90232440Y-93901400D01*
X81277460Y-98676460D02*
X82731762Y-98676460D01*
X89471790Y-94228630D02*
X89796620Y-93903800D01*
X89436230Y-94228630D02*
X89471790Y-94228630D01*
X89181191Y-94483669D02*
X89436230Y-94228630D01*
X83025092Y-98969790D02*
X88218871Y-98969790D01*
X81168240Y-98785680D02*
X81277460Y-98676460D01*
X82731762Y-98676460D02*
X83025092Y-98969790D01*
X89796620Y-93903800D02*
X90230040Y-93903800D01*
X89181191Y-98007470D02*
X89181191Y-94483669D01*
X88218871Y-98969790D02*
X89181191Y-98007470D01*
X81168240Y-99067620D02*
X81168240Y-98785680D01*
D33*
X69926550Y-81302022D02*
X69926550Y-81980690D01*
X68986100Y-82921140D02*
X68986100Y-84340700D01*
X69926550Y-81980690D02*
X68986100Y-82921140D01*
D32*
X72073450Y-76623530D02*
X73499980Y-75197000D01*
X72073450Y-76697978D02*
X72073450Y-76623530D01*
X73499980Y-75197000D02*
X73538480Y-75197000D01*
D36*
X97610000Y-102790000D02*
X97610000Y-107440000D01*
X93509270Y-98689270D02*
X97610000Y-102790000D01*
X92921400Y-96441400D02*
X93509270Y-97029270D01*
X93509270Y-97029270D02*
X93509270Y-98689270D01*
X91067440Y-96441400D02*
X92921400Y-96441400D01*
D33*
X95371400Y-96441400D02*
X95370000Y-96440000D01*
X96867440Y-96441400D02*
X95371400Y-96441400D01*
D36*
X79361652Y-101704428D02*
X78117840Y-102948240D01*
X86709759Y-100600001D02*
X85605332Y-101704428D01*
X85605332Y-101704428D02*
X79361652Y-101704428D01*
X89581201Y-99528799D02*
X88509999Y-100600001D01*
X89581201Y-95510000D02*
X89581201Y-99528799D01*
X88509999Y-100600001D02*
X86709759Y-100600001D01*
X89919801Y-95171400D02*
X89581201Y-95510000D01*
X91067440Y-95171400D02*
X89919801Y-95171400D01*
X96829990Y-107390010D02*
X96800000Y-107420000D01*
X93343582Y-99089280D02*
X96829990Y-102575688D01*
X91067440Y-97711400D02*
X92610660Y-97711400D01*
X93109260Y-98854959D02*
X93343582Y-99089280D01*
X96829990Y-102575688D02*
X96829990Y-107390010D01*
X93109260Y-98210000D02*
X93109260Y-98854959D01*
X92610660Y-97711400D02*
X93109260Y-98210000D01*
X95308624Y-98656140D02*
X94534281Y-97881797D01*
X100213160Y-98656140D02*
X95308624Y-98656140D01*
X94534281Y-92347421D02*
X94534281Y-92776601D01*
X92986860Y-90800000D02*
X94534281Y-92347421D01*
X94534281Y-97881797D02*
X94534281Y-92776601D01*
D33*
X110827960Y-100538420D02*
X110170100Y-101196280D01*
X110827960Y-97457400D02*
X110827960Y-100538420D01*
X108219554Y-96743281D02*
X110113841Y-96743281D01*
X110113841Y-96743281D02*
X110827960Y-97457400D01*
X103618440Y-91747480D02*
X106248340Y-91747480D01*
X106946250Y-95469977D02*
X108219554Y-96743281D01*
X110170100Y-101196280D02*
X109532560Y-101196280D01*
X106248340Y-91747480D02*
X106946250Y-92445390D01*
X106946250Y-92445390D02*
X106946250Y-95469977D01*
X110040560Y-99926280D02*
X109532560Y-99926280D01*
X110373950Y-98392770D02*
X110373950Y-99592890D01*
X109994461Y-98013281D02*
X110373950Y-98392770D01*
X108205420Y-98013281D02*
X109994461Y-98013281D01*
X106038231Y-95846091D02*
X108205420Y-98013281D01*
X110373950Y-99592890D02*
X110040560Y-99926280D01*
X105618420Y-94287480D02*
X106038230Y-94707290D01*
X106038230Y-94707290D02*
X106038231Y-95846091D01*
X103618440Y-94287480D02*
X105618420Y-94287480D01*
X109532560Y-86083280D02*
X109532560Y-91033740D01*
X108846760Y-85397480D02*
X109532560Y-86083280D01*
X103618440Y-85397480D02*
X108846760Y-85397480D01*
X107599620Y-87937480D02*
X103618440Y-87937480D01*
X108308280Y-88646140D02*
X107599620Y-87937480D01*
X108735000Y-92306280D02*
X108308280Y-91879560D01*
X108308280Y-91879560D02*
X108308280Y-88646140D01*
X109532560Y-92306280D02*
X108735000Y-92306280D01*
X103618440Y-89207480D02*
X104872440Y-89207480D01*
X104872440Y-89207480D02*
X107236400Y-89207480D01*
X107854270Y-89825350D02*
X107854270Y-93739490D01*
X107236400Y-89207480D02*
X107854270Y-89825350D01*
X107854270Y-93739490D02*
X107854270Y-94140810D01*
X109532560Y-94846280D02*
X108488620Y-94846280D01*
X107854270Y-94211930D02*
X107854270Y-93739490D01*
X108488620Y-94846280D02*
X107854270Y-94211930D01*
X108234620Y-96116280D02*
X109532560Y-96116280D01*
X107400260Y-95281920D02*
X108234620Y-96116280D01*
X103618440Y-90477480D02*
X104872440Y-90477480D01*
X106761420Y-90480020D02*
X107400260Y-91118860D01*
X104872440Y-90477480D02*
X104874980Y-90480020D01*
X107400260Y-91118860D02*
X107400260Y-95281920D01*
X104874980Y-90480020D02*
X106761420Y-90480020D01*
X104872440Y-93017480D02*
X104874980Y-93020020D01*
X103618440Y-93017480D02*
X104872440Y-93017480D01*
X104874980Y-93020020D02*
X105864800Y-93020020D01*
X105864800Y-93020020D02*
X106492240Y-93647460D01*
X109108296Y-97386280D02*
X109532560Y-97386280D01*
X108220486Y-97386280D02*
X109108296Y-97386280D01*
X106492240Y-95658034D02*
X108220486Y-97386280D01*
X106492240Y-93647460D02*
X106492240Y-95658034D01*
D32*
X71775200Y-86997420D02*
X71772780Y-86995000D01*
X71775200Y-88025500D02*
X71775200Y-86997420D01*
D36*
X71775200Y-88025500D02*
X77775200Y-88025500D01*
D34*
X107464663Y-82984663D02*
X106990000Y-82510000D01*
X112625337Y-82984663D02*
X107464663Y-82984663D01*
X113100000Y-82510000D02*
X112625337Y-82984663D01*
D36*
X107000000Y-107000000D02*
X107000000Y-104394000D01*
D34*
X86601440Y-81498560D02*
X86600000Y-81500000D01*
X86601440Y-80680700D02*
X86601440Y-81498560D01*
X86600000Y-82215480D02*
X87033720Y-82649200D01*
X86600000Y-81500000D02*
X86600000Y-82215480D01*
X87465040Y-80680700D02*
X87465040Y-81503660D01*
X87465040Y-82217880D02*
X87033720Y-82649200D01*
X87465040Y-81503660D02*
X87465040Y-82217880D01*
D33*
X81516360Y-86408400D02*
X82189460Y-87081500D01*
X80058700Y-86408400D02*
X81516360Y-86408400D01*
D36*
X78368720Y-97500000D02*
X77775200Y-96906480D01*
X83000000Y-97500000D02*
X78368720Y-97500000D01*
X77775200Y-96906480D02*
X77775200Y-91725500D01*
D33*
X117522560Y-101637440D02*
X117522560Y-101120000D01*
X117010000Y-102150000D02*
X117522560Y-101637440D01*
X109470000Y-102150000D02*
X117010000Y-102150000D01*
X104720000Y-97400000D02*
X109470000Y-102150000D01*
X103402560Y-97400000D02*
X104720000Y-97400000D01*
D36*
X71775200Y-91725500D02*
X77775200Y-91725500D01*
D34*
X117522560Y-101120000D02*
X117522560Y-102842560D01*
X118410000Y-103730000D02*
X118410000Y-105960000D01*
X117522560Y-102842560D02*
X118410000Y-103730000D01*
X105530000Y-81740000D02*
X105520000Y-81750000D01*
X105530000Y-73640000D02*
X105530000Y-81740000D01*
X107020000Y-78810000D02*
X107020000Y-81250000D01*
X108151850Y-82381850D02*
X112058150Y-82381850D01*
X107020000Y-81250000D02*
X108151850Y-82381850D01*
X112058150Y-82381850D02*
X113010000Y-81430000D01*
X113010000Y-81430000D02*
X114410000Y-81430000D01*
X115050000Y-80790000D02*
X115050000Y-78810000D01*
X114410000Y-81430000D02*
X115050000Y-80790000D01*
M02*
