%TF.GenerationSoftware,KiCad,Pcbnew,(5.1.8-0-10_14)*%
%TF.CreationDate,2022-01-05T18:09:54+08:00*%
%TF.ProjectId,MicroMouse,4d696372-6f4d-46f7-9573-652e6b696361,rev?*%
%TF.SameCoordinates,Original*%
%TF.FileFunction,Soldermask,Top*%
%TF.FilePolarity,Negative*%
%FSLAX46Y46*%
G04 Gerber Fmt 4.6, Leading zero omitted, Abs format (unit mm)*
G04 Created by KiCad (PCBNEW (5.1.8-0-10_14)) date 2022-01-05 18:09:54*
%MOMM*%
%LPD*%
G01*
G04 APERTURE LIST*
%ADD10C,1.600000*%
%ADD11C,1.300000*%
%ADD12O,1.300000X0.900000*%
%ADD13C,2.102000*%
%ADD14C,3.102000*%
%ADD15C,0.100000*%
G04 APERTURE END LIST*
D10*
X82189460Y-84541500D03*
X82189460Y-87081500D03*
X82189460Y-89621500D03*
G36*
G01*
X82939460Y-92961500D02*
X81439460Y-92961500D01*
G75*
G02*
X81389460Y-92911500I0J50000D01*
G01*
X81389460Y-91411500D01*
G75*
G02*
X81439460Y-91361500I50000J0D01*
G01*
X82939460Y-91361500D01*
G75*
G02*
X82989460Y-91411500I0J-50000D01*
G01*
X82989460Y-92911500D01*
G75*
G02*
X82939460Y-92961500I-50000J0D01*
G01*
G37*
D11*
X81604240Y-81196320D03*
G36*
G01*
X82954240Y-81796320D02*
X82954240Y-80596320D01*
G75*
G02*
X83004240Y-80546320I50000J0D01*
G01*
X84204240Y-80546320D01*
G75*
G02*
X84254240Y-80596320I0J-50000D01*
G01*
X84254240Y-81796320D01*
G75*
G02*
X84204240Y-81846320I-50000J0D01*
G01*
X83004240Y-81846320D01*
G75*
G02*
X82954240Y-81796320I0J50000D01*
G01*
G37*
G36*
G01*
X72908165Y-102474326D02*
X72545641Y-102643374D01*
G75*
G02*
X71947624Y-102425713I-190178J407839D01*
G01*
X71947624Y-102425713D01*
G75*
G02*
X72165285Y-101827696I407839J190178D01*
G01*
X72527809Y-101658648D01*
G75*
G02*
X73125826Y-101876309I190178J-407839D01*
G01*
X73125826Y-101876309D01*
G75*
G02*
X72908165Y-102474326I-407839J-190178D01*
G01*
G37*
G36*
G01*
X71834715Y-100172304D02*
X71472191Y-100341352D01*
G75*
G02*
X70874174Y-100123691I-190178J407839D01*
G01*
X70874174Y-100123691D01*
G75*
G02*
X71091835Y-99525674I407839J190178D01*
G01*
X71454359Y-99356626D01*
G75*
G02*
X72052376Y-99574287I190178J-407839D01*
G01*
X72052376Y-99574287D01*
G75*
G02*
X71834715Y-100172304I-407839J-190178D01*
G01*
G37*
G36*
G01*
X71297990Y-99021293D02*
X70935466Y-99190341D01*
G75*
G02*
X70337449Y-98972680I-190178J407839D01*
G01*
X70337449Y-98972680D01*
G75*
G02*
X70555110Y-98374663I407839J190178D01*
G01*
X70917634Y-98205615D01*
G75*
G02*
X71515651Y-98423276I190178J-407839D01*
G01*
X71515651Y-98423276D01*
G75*
G02*
X71297990Y-99021293I-407839J-190178D01*
G01*
G37*
G36*
G01*
X73807413Y-103456289D02*
X72719844Y-103963431D01*
G75*
G02*
X72653398Y-103939247I-21131J45315D01*
G01*
X72315303Y-103214201D01*
G75*
G02*
X72339487Y-103147755I45315J21131D01*
G01*
X73427056Y-102640613D01*
G75*
G02*
X73493502Y-102664797I21131J-45315D01*
G01*
X73831597Y-103389843D01*
G75*
G02*
X73807413Y-103456289I-45315J-21131D01*
G01*
G37*
D12*
X69000000Y-91270000D03*
X69000000Y-88730000D03*
X69000000Y-87460000D03*
G36*
G01*
X69600000Y-92990000D02*
X68400000Y-92990000D01*
G75*
G02*
X68350000Y-92940000I0J50000D01*
G01*
X68350000Y-92140000D01*
G75*
G02*
X68400000Y-92090000I50000J0D01*
G01*
X69600000Y-92090000D01*
G75*
G02*
X69650000Y-92140000I0J-50000D01*
G01*
X69650000Y-92940000D01*
G75*
G02*
X69600000Y-92990000I-50000J0D01*
G01*
G37*
G36*
G01*
X70454359Y-80643374D02*
X70091835Y-80474326D01*
G75*
G02*
X69874174Y-79876309I190178J407839D01*
G01*
X69874174Y-79876309D01*
G75*
G02*
X70472191Y-79658648I407839J-190178D01*
G01*
X70834715Y-79827696D01*
G75*
G02*
X71052376Y-80425713I-190178J-407839D01*
G01*
X71052376Y-80425713D01*
G75*
G02*
X70454359Y-80643374I-407839J190178D01*
G01*
G37*
G36*
G01*
X71527809Y-78341352D02*
X71165285Y-78172304D01*
G75*
G02*
X70947624Y-77574287I190178J407839D01*
G01*
X70947624Y-77574287D01*
G75*
G02*
X71545641Y-77356626I407839J-190178D01*
G01*
X71908165Y-77525674D01*
G75*
G02*
X72125826Y-78123691I-190178J-407839D01*
G01*
X72125826Y-78123691D01*
G75*
G02*
X71527809Y-78341352I-407839J190178D01*
G01*
G37*
G36*
G01*
X72064534Y-77190341D02*
X71702010Y-77021293D01*
G75*
G02*
X71484349Y-76423276I190178J407839D01*
G01*
X71484349Y-76423276D01*
G75*
G02*
X72082366Y-76205615I407839J-190178D01*
G01*
X72444890Y-76374663D01*
G75*
G02*
X72662551Y-76972680I-190178J-407839D01*
G01*
X72662551Y-76972680D01*
G75*
G02*
X72064534Y-77190341I-407839J190178D01*
G01*
G37*
G36*
G01*
X70280156Y-81963431D02*
X69192587Y-81456289D01*
G75*
G02*
X69168403Y-81389843I21131J45315D01*
G01*
X69506498Y-80664797D01*
G75*
G02*
X69572944Y-80640613I45315J-21131D01*
G01*
X70660513Y-81147755D01*
G75*
G02*
X70684697Y-81214201I-21131J-45315D01*
G01*
X70346602Y-81939247D01*
G75*
G02*
X70280156Y-81963431I-45315J21131D01*
G01*
G37*
D10*
X118859440Y-96017240D03*
X118859440Y-93517240D03*
X118859440Y-91017240D03*
X118859440Y-88517240D03*
G36*
G01*
X119609440Y-86817240D02*
X118109440Y-86817240D01*
G75*
G02*
X118059440Y-86767240I0J50000D01*
G01*
X118059440Y-85267240D01*
G75*
G02*
X118109440Y-85217240I50000J0D01*
G01*
X119609440Y-85217240D01*
G75*
G02*
X119659440Y-85267240I0J-50000D01*
G01*
X119659440Y-86767240D01*
G75*
G02*
X119609440Y-86817240I-50000J0D01*
G01*
G37*
G36*
G01*
X78952200Y-85976400D02*
X78952200Y-86840400D01*
G75*
G02*
X78902200Y-86890400I-50000J0D01*
G01*
X78115200Y-86890400D01*
G75*
G02*
X78065200Y-86840400I0J50000D01*
G01*
X78065200Y-85976400D01*
G75*
G02*
X78115200Y-85926400I50000J0D01*
G01*
X78902200Y-85926400D01*
G75*
G02*
X78952200Y-85976400I0J-50000D01*
G01*
G37*
G36*
G01*
X80502200Y-85976400D02*
X80502200Y-86840400D01*
G75*
G02*
X80452200Y-86890400I-50000J0D01*
G01*
X79665200Y-86890400D01*
G75*
G02*
X79615200Y-86840400I0J50000D01*
G01*
X79615200Y-85976400D01*
G75*
G02*
X79665200Y-85926400I50000J0D01*
G01*
X80452200Y-85926400D01*
G75*
G02*
X80502200Y-85976400I0J-50000D01*
G01*
G37*
G36*
G01*
X78952200Y-84640360D02*
X78952200Y-85504360D01*
G75*
G02*
X78902200Y-85554360I-50000J0D01*
G01*
X78115200Y-85554360D01*
G75*
G02*
X78065200Y-85504360I0J50000D01*
G01*
X78065200Y-84640360D01*
G75*
G02*
X78115200Y-84590360I50000J0D01*
G01*
X78902200Y-84590360D01*
G75*
G02*
X78952200Y-84640360I0J-50000D01*
G01*
G37*
G36*
G01*
X80502200Y-84640360D02*
X80502200Y-85504360D01*
G75*
G02*
X80452200Y-85554360I-50000J0D01*
G01*
X79665200Y-85554360D01*
G75*
G02*
X79615200Y-85504360I0J50000D01*
G01*
X79615200Y-84640360D01*
G75*
G02*
X79665200Y-84590360I50000J0D01*
G01*
X80452200Y-84590360D01*
G75*
G02*
X80502200Y-84640360I0J-50000D01*
G01*
G37*
X127640220Y-96052800D03*
X127640220Y-93552800D03*
X127640220Y-91052800D03*
X127640220Y-88552800D03*
G36*
G01*
X128390220Y-86852800D02*
X126890220Y-86852800D01*
G75*
G02*
X126840220Y-86802800I0J50000D01*
G01*
X126840220Y-85302800D01*
G75*
G02*
X126890220Y-85252800I50000J0D01*
G01*
X128390220Y-85252800D01*
G75*
G02*
X128440220Y-85302800I0J-50000D01*
G01*
X128440220Y-86802800D01*
G75*
G02*
X128390220Y-86852800I-50000J0D01*
G01*
G37*
G36*
G01*
X96232440Y-89701400D02*
X97502440Y-89701400D01*
G75*
G02*
X97552440Y-89751400I0J-50000D01*
G01*
X97552440Y-90451400D01*
G75*
G02*
X97502440Y-90501400I-50000J0D01*
G01*
X96232440Y-90501400D01*
G75*
G02*
X96182440Y-90451400I0J50000D01*
G01*
X96182440Y-89751400D01*
G75*
G02*
X96232440Y-89701400I50000J0D01*
G01*
G37*
G36*
G01*
X96232440Y-90961400D02*
X97502440Y-90961400D01*
G75*
G02*
X97552440Y-91011400I0J-50000D01*
G01*
X97552440Y-91711400D01*
G75*
G02*
X97502440Y-91761400I-50000J0D01*
G01*
X96232440Y-91761400D01*
G75*
G02*
X96182440Y-91711400I0J50000D01*
G01*
X96182440Y-91011400D01*
G75*
G02*
X96232440Y-90961400I50000J0D01*
G01*
G37*
G36*
G01*
X96232440Y-92231400D02*
X97502440Y-92231400D01*
G75*
G02*
X97552440Y-92281400I0J-50000D01*
G01*
X97552440Y-92981400D01*
G75*
G02*
X97502440Y-93031400I-50000J0D01*
G01*
X96232440Y-93031400D01*
G75*
G02*
X96182440Y-92981400I0J50000D01*
G01*
X96182440Y-92281400D01*
G75*
G02*
X96232440Y-92231400I50000J0D01*
G01*
G37*
G36*
G01*
X96232440Y-94771400D02*
X97502440Y-94771400D01*
G75*
G02*
X97552440Y-94821400I0J-50000D01*
G01*
X97552440Y-95521400D01*
G75*
G02*
X97502440Y-95571400I-50000J0D01*
G01*
X96232440Y-95571400D01*
G75*
G02*
X96182440Y-95521400I0J50000D01*
G01*
X96182440Y-94821400D01*
G75*
G02*
X96232440Y-94771400I50000J0D01*
G01*
G37*
G36*
G01*
X96232440Y-96041400D02*
X97502440Y-96041400D01*
G75*
G02*
X97552440Y-96091400I0J-50000D01*
G01*
X97552440Y-96791400D01*
G75*
G02*
X97502440Y-96841400I-50000J0D01*
G01*
X96232440Y-96841400D01*
G75*
G02*
X96182440Y-96791400I0J50000D01*
G01*
X96182440Y-96091400D01*
G75*
G02*
X96232440Y-96041400I50000J0D01*
G01*
G37*
G36*
G01*
X96232440Y-97311400D02*
X97502440Y-97311400D01*
G75*
G02*
X97552440Y-97361400I0J-50000D01*
G01*
X97552440Y-98061400D01*
G75*
G02*
X97502440Y-98111400I-50000J0D01*
G01*
X96232440Y-98111400D01*
G75*
G02*
X96182440Y-98061400I0J50000D01*
G01*
X96182440Y-97361400D01*
G75*
G02*
X96232440Y-97311400I50000J0D01*
G01*
G37*
G36*
G01*
X90432440Y-97311400D02*
X91702440Y-97311400D01*
G75*
G02*
X91752440Y-97361400I0J-50000D01*
G01*
X91752440Y-98061400D01*
G75*
G02*
X91702440Y-98111400I-50000J0D01*
G01*
X90432440Y-98111400D01*
G75*
G02*
X90382440Y-98061400I0J50000D01*
G01*
X90382440Y-97361400D01*
G75*
G02*
X90432440Y-97311400I50000J0D01*
G01*
G37*
G36*
G01*
X90432440Y-96041400D02*
X91702440Y-96041400D01*
G75*
G02*
X91752440Y-96091400I0J-50000D01*
G01*
X91752440Y-96791400D01*
G75*
G02*
X91702440Y-96841400I-50000J0D01*
G01*
X90432440Y-96841400D01*
G75*
G02*
X90382440Y-96791400I0J50000D01*
G01*
X90382440Y-96091400D01*
G75*
G02*
X90432440Y-96041400I50000J0D01*
G01*
G37*
G36*
G01*
X90432440Y-94771400D02*
X91702440Y-94771400D01*
G75*
G02*
X91752440Y-94821400I0J-50000D01*
G01*
X91752440Y-95521400D01*
G75*
G02*
X91702440Y-95571400I-50000J0D01*
G01*
X90432440Y-95571400D01*
G75*
G02*
X90382440Y-95521400I0J50000D01*
G01*
X90382440Y-94821400D01*
G75*
G02*
X90432440Y-94771400I50000J0D01*
G01*
G37*
G36*
G01*
X90432440Y-89691400D02*
X91702440Y-89691400D01*
G75*
G02*
X91752440Y-89741400I0J-50000D01*
G01*
X91752440Y-90441400D01*
G75*
G02*
X91702440Y-90491400I-50000J0D01*
G01*
X90432440Y-90491400D01*
G75*
G02*
X90382440Y-90441400I0J50000D01*
G01*
X90382440Y-89741400D01*
G75*
G02*
X90432440Y-89691400I50000J0D01*
G01*
G37*
G36*
G01*
X90432440Y-90961400D02*
X91702440Y-90961400D01*
G75*
G02*
X91752440Y-91011400I0J-50000D01*
G01*
X91752440Y-91711400D01*
G75*
G02*
X91702440Y-91761400I-50000J0D01*
G01*
X90432440Y-91761400D01*
G75*
G02*
X90382440Y-91711400I0J50000D01*
G01*
X90382440Y-91011400D01*
G75*
G02*
X90432440Y-90961400I50000J0D01*
G01*
G37*
G36*
G01*
X90432440Y-92231400D02*
X91702440Y-92231400D01*
G75*
G02*
X91752440Y-92281400I0J-50000D01*
G01*
X91752440Y-92981400D01*
G75*
G02*
X91702440Y-93031400I-50000J0D01*
G01*
X90432440Y-93031400D01*
G75*
G02*
X90382440Y-92981400I0J50000D01*
G01*
X90382440Y-92281400D01*
G75*
G02*
X90432440Y-92231400I50000J0D01*
G01*
G37*
G36*
G01*
X96232440Y-93501400D02*
X97502440Y-93501400D01*
G75*
G02*
X97552440Y-93551400I0J-50000D01*
G01*
X97552440Y-94251400D01*
G75*
G02*
X97502440Y-94301400I-50000J0D01*
G01*
X96232440Y-94301400D01*
G75*
G02*
X96182440Y-94251400I0J50000D01*
G01*
X96182440Y-93551400D01*
G75*
G02*
X96232440Y-93501400I50000J0D01*
G01*
G37*
G36*
G01*
X90432440Y-93501400D02*
X91702440Y-93501400D01*
G75*
G02*
X91752440Y-93551400I0J-50000D01*
G01*
X91752440Y-94251400D01*
G75*
G02*
X91702440Y-94301400I-50000J0D01*
G01*
X90432440Y-94301400D01*
G75*
G02*
X90382440Y-94251400I0J50000D01*
G01*
X90382440Y-93551400D01*
G75*
G02*
X90432440Y-93501400I50000J0D01*
G01*
G37*
G36*
G01*
X112018440Y-85047480D02*
X114018440Y-85047480D01*
G75*
G02*
X114068440Y-85097480I0J-50000D01*
G01*
X114068440Y-85697480D01*
G75*
G02*
X114018440Y-85747480I-50000J0D01*
G01*
X112018440Y-85747480D01*
G75*
G02*
X111968440Y-85697480I0J50000D01*
G01*
X111968440Y-85097480D01*
G75*
G02*
X112018440Y-85047480I50000J0D01*
G01*
G37*
G36*
G01*
X112018440Y-86317480D02*
X114018440Y-86317480D01*
G75*
G02*
X114068440Y-86367480I0J-50000D01*
G01*
X114068440Y-86967480D01*
G75*
G02*
X114018440Y-87017480I-50000J0D01*
G01*
X112018440Y-87017480D01*
G75*
G02*
X111968440Y-86967480I0J50000D01*
G01*
X111968440Y-86367480D01*
G75*
G02*
X112018440Y-86317480I50000J0D01*
G01*
G37*
G36*
G01*
X112018440Y-87477480D02*
X114018440Y-87477480D01*
G75*
G02*
X114068440Y-87527480I0J-50000D01*
G01*
X114068440Y-88127480D01*
G75*
G02*
X114018440Y-88177480I-50000J0D01*
G01*
X112018440Y-88177480D01*
G75*
G02*
X111968440Y-88127480I0J50000D01*
G01*
X111968440Y-87527480D01*
G75*
G02*
X112018440Y-87477480I50000J0D01*
G01*
G37*
G36*
G01*
X112018440Y-88857480D02*
X114018440Y-88857480D01*
G75*
G02*
X114068440Y-88907480I0J-50000D01*
G01*
X114068440Y-89507480D01*
G75*
G02*
X114018440Y-89557480I-50000J0D01*
G01*
X112018440Y-89557480D01*
G75*
G02*
X111968440Y-89507480I0J50000D01*
G01*
X111968440Y-88907480D01*
G75*
G02*
X112018440Y-88857480I50000J0D01*
G01*
G37*
G36*
G01*
X112018440Y-90127480D02*
X114018440Y-90127480D01*
G75*
G02*
X114068440Y-90177480I0J-50000D01*
G01*
X114068440Y-90777480D01*
G75*
G02*
X114018440Y-90827480I-50000J0D01*
G01*
X112018440Y-90827480D01*
G75*
G02*
X111968440Y-90777480I0J50000D01*
G01*
X111968440Y-90177480D01*
G75*
G02*
X112018440Y-90127480I50000J0D01*
G01*
G37*
G36*
G01*
X112018440Y-91397480D02*
X114018440Y-91397480D01*
G75*
G02*
X114068440Y-91447480I0J-50000D01*
G01*
X114068440Y-92047480D01*
G75*
G02*
X114018440Y-92097480I-50000J0D01*
G01*
X112018440Y-92097480D01*
G75*
G02*
X111968440Y-92047480I0J50000D01*
G01*
X111968440Y-91447480D01*
G75*
G02*
X112018440Y-91397480I50000J0D01*
G01*
G37*
G36*
G01*
X112018440Y-92667480D02*
X114018440Y-92667480D01*
G75*
G02*
X114068440Y-92717480I0J-50000D01*
G01*
X114068440Y-93317480D01*
G75*
G02*
X114018440Y-93367480I-50000J0D01*
G01*
X112018440Y-93367480D01*
G75*
G02*
X111968440Y-93317480I0J50000D01*
G01*
X111968440Y-92717480D01*
G75*
G02*
X112018440Y-92667480I50000J0D01*
G01*
G37*
G36*
G01*
X112018440Y-93937480D02*
X114018440Y-93937480D01*
G75*
G02*
X114068440Y-93987480I0J-50000D01*
G01*
X114068440Y-94587480D01*
G75*
G02*
X114018440Y-94637480I-50000J0D01*
G01*
X112018440Y-94637480D01*
G75*
G02*
X111968440Y-94587480I0J50000D01*
G01*
X111968440Y-93987480D01*
G75*
G02*
X112018440Y-93937480I50000J0D01*
G01*
G37*
G36*
G01*
X112018440Y-95207480D02*
X114018440Y-95207480D01*
G75*
G02*
X114068440Y-95257480I0J-50000D01*
G01*
X114068440Y-95857480D01*
G75*
G02*
X114018440Y-95907480I-50000J0D01*
G01*
X112018440Y-95907480D01*
G75*
G02*
X111968440Y-95857480I0J50000D01*
G01*
X111968440Y-95257480D01*
G75*
G02*
X112018440Y-95207480I50000J0D01*
G01*
G37*
G36*
G01*
X102618440Y-95207480D02*
X104618440Y-95207480D01*
G75*
G02*
X104668440Y-95257480I0J-50000D01*
G01*
X104668440Y-95857480D01*
G75*
G02*
X104618440Y-95907480I-50000J0D01*
G01*
X102618440Y-95907480D01*
G75*
G02*
X102568440Y-95857480I0J50000D01*
G01*
X102568440Y-95257480D01*
G75*
G02*
X102618440Y-95207480I50000J0D01*
G01*
G37*
G36*
G01*
X102618440Y-93937480D02*
X104618440Y-93937480D01*
G75*
G02*
X104668440Y-93987480I0J-50000D01*
G01*
X104668440Y-94587480D01*
G75*
G02*
X104618440Y-94637480I-50000J0D01*
G01*
X102618440Y-94637480D01*
G75*
G02*
X102568440Y-94587480I0J50000D01*
G01*
X102568440Y-93987480D01*
G75*
G02*
X102618440Y-93937480I50000J0D01*
G01*
G37*
G36*
G01*
X102618440Y-92667480D02*
X104618440Y-92667480D01*
G75*
G02*
X104668440Y-92717480I0J-50000D01*
G01*
X104668440Y-93317480D01*
G75*
G02*
X104618440Y-93367480I-50000J0D01*
G01*
X102618440Y-93367480D01*
G75*
G02*
X102568440Y-93317480I0J50000D01*
G01*
X102568440Y-92717480D01*
G75*
G02*
X102618440Y-92667480I50000J0D01*
G01*
G37*
G36*
G01*
X102618440Y-91397480D02*
X104618440Y-91397480D01*
G75*
G02*
X104668440Y-91447480I0J-50000D01*
G01*
X104668440Y-92047480D01*
G75*
G02*
X104618440Y-92097480I-50000J0D01*
G01*
X102618440Y-92097480D01*
G75*
G02*
X102568440Y-92047480I0J50000D01*
G01*
X102568440Y-91447480D01*
G75*
G02*
X102618440Y-91397480I50000J0D01*
G01*
G37*
G36*
G01*
X102618440Y-90127480D02*
X104618440Y-90127480D01*
G75*
G02*
X104668440Y-90177480I0J-50000D01*
G01*
X104668440Y-90777480D01*
G75*
G02*
X104618440Y-90827480I-50000J0D01*
G01*
X102618440Y-90827480D01*
G75*
G02*
X102568440Y-90777480I0J50000D01*
G01*
X102568440Y-90177480D01*
G75*
G02*
X102618440Y-90127480I50000J0D01*
G01*
G37*
G36*
G01*
X102618440Y-88857480D02*
X104618440Y-88857480D01*
G75*
G02*
X104668440Y-88907480I0J-50000D01*
G01*
X104668440Y-89507480D01*
G75*
G02*
X104618440Y-89557480I-50000J0D01*
G01*
X102618440Y-89557480D01*
G75*
G02*
X102568440Y-89507480I0J50000D01*
G01*
X102568440Y-88907480D01*
G75*
G02*
X102618440Y-88857480I50000J0D01*
G01*
G37*
G36*
G01*
X102618440Y-87587480D02*
X104618440Y-87587480D01*
G75*
G02*
X104668440Y-87637480I0J-50000D01*
G01*
X104668440Y-88237480D01*
G75*
G02*
X104618440Y-88287480I-50000J0D01*
G01*
X102618440Y-88287480D01*
G75*
G02*
X102568440Y-88237480I0J50000D01*
G01*
X102568440Y-87637480D01*
G75*
G02*
X102618440Y-87587480I50000J0D01*
G01*
G37*
G36*
G01*
X102618440Y-86317480D02*
X104618440Y-86317480D01*
G75*
G02*
X104668440Y-86367480I0J-50000D01*
G01*
X104668440Y-86967480D01*
G75*
G02*
X104618440Y-87017480I-50000J0D01*
G01*
X102618440Y-87017480D01*
G75*
G02*
X102568440Y-86967480I0J50000D01*
G01*
X102568440Y-86367480D01*
G75*
G02*
X102618440Y-86317480I50000J0D01*
G01*
G37*
G36*
G01*
X102618440Y-85047480D02*
X104618440Y-85047480D01*
G75*
G02*
X104668440Y-85097480I0J-50000D01*
G01*
X104668440Y-85697480D01*
G75*
G02*
X104618440Y-85747480I-50000J0D01*
G01*
X102618440Y-85747480D01*
G75*
G02*
X102568440Y-85697480I0J50000D01*
G01*
X102568440Y-85097480D01*
G75*
G02*
X102618440Y-85047480I50000J0D01*
G01*
G37*
G36*
G01*
X95724400Y-81509060D02*
X95724400Y-80559060D01*
G75*
G02*
X95774400Y-80509060I50000J0D01*
G01*
X96174400Y-80509060D01*
G75*
G02*
X96224400Y-80559060I0J-50000D01*
G01*
X96224400Y-81509060D01*
G75*
G02*
X96174400Y-81559060I-50000J0D01*
G01*
X95774400Y-81559060D01*
G75*
G02*
X95724400Y-81509060I0J50000D01*
G01*
G37*
G36*
G01*
X96374400Y-81509060D02*
X96374400Y-80559060D01*
G75*
G02*
X96424400Y-80509060I50000J0D01*
G01*
X96824400Y-80509060D01*
G75*
G02*
X96874400Y-80559060I0J-50000D01*
G01*
X96874400Y-81509060D01*
G75*
G02*
X96824400Y-81559060I-50000J0D01*
G01*
X96424400Y-81559060D01*
G75*
G02*
X96374400Y-81509060I0J50000D01*
G01*
G37*
G36*
G01*
X97024400Y-81509060D02*
X97024400Y-80559060D01*
G75*
G02*
X97074400Y-80509060I50000J0D01*
G01*
X97474400Y-80509060D01*
G75*
G02*
X97524400Y-80559060I0J-50000D01*
G01*
X97524400Y-81509060D01*
G75*
G02*
X97474400Y-81559060I-50000J0D01*
G01*
X97074400Y-81559060D01*
G75*
G02*
X97024400Y-81509060I0J50000D01*
G01*
G37*
G36*
G01*
X97674400Y-81509060D02*
X97674400Y-80559060D01*
G75*
G02*
X97724400Y-80509060I50000J0D01*
G01*
X98124400Y-80509060D01*
G75*
G02*
X98174400Y-80559060I0J-50000D01*
G01*
X98174400Y-81509060D01*
G75*
G02*
X98124400Y-81559060I-50000J0D01*
G01*
X97724400Y-81559060D01*
G75*
G02*
X97674400Y-81509060I0J50000D01*
G01*
G37*
G36*
G01*
X97674400Y-86309060D02*
X97674400Y-85359060D01*
G75*
G02*
X97724400Y-85309060I50000J0D01*
G01*
X98124400Y-85309060D01*
G75*
G02*
X98174400Y-85359060I0J-50000D01*
G01*
X98174400Y-86309060D01*
G75*
G02*
X98124400Y-86359060I-50000J0D01*
G01*
X97724400Y-86359060D01*
G75*
G02*
X97674400Y-86309060I0J50000D01*
G01*
G37*
G36*
G01*
X97024400Y-86309060D02*
X97024400Y-85359060D01*
G75*
G02*
X97074400Y-85309060I50000J0D01*
G01*
X97474400Y-85309060D01*
G75*
G02*
X97524400Y-85359060I0J-50000D01*
G01*
X97524400Y-86309060D01*
G75*
G02*
X97474400Y-86359060I-50000J0D01*
G01*
X97074400Y-86359060D01*
G75*
G02*
X97024400Y-86309060I0J50000D01*
G01*
G37*
G36*
G01*
X95724400Y-86309060D02*
X95724400Y-85359060D01*
G75*
G02*
X95774400Y-85309060I50000J0D01*
G01*
X96174400Y-85309060D01*
G75*
G02*
X96224400Y-85359060I0J-50000D01*
G01*
X96224400Y-86309060D01*
G75*
G02*
X96174400Y-86359060I-50000J0D01*
G01*
X95774400Y-86359060D01*
G75*
G02*
X95724400Y-86309060I0J50000D01*
G01*
G37*
G36*
G01*
X96374400Y-86309060D02*
X96374400Y-85359060D01*
G75*
G02*
X96424400Y-85309060I50000J0D01*
G01*
X96824400Y-85309060D01*
G75*
G02*
X96874400Y-85359060I0J-50000D01*
G01*
X96874400Y-86309060D01*
G75*
G02*
X96824400Y-86359060I-50000J0D01*
G01*
X96424400Y-86359060D01*
G75*
G02*
X96374400Y-86309060I0J50000D01*
G01*
G37*
G36*
G01*
X77225200Y-92075500D02*
X77225200Y-91375500D01*
G75*
G02*
X77275200Y-91325500I50000J0D01*
G01*
X78275200Y-91325500D01*
G75*
G02*
X78325200Y-91375500I0J-50000D01*
G01*
X78325200Y-92075500D01*
G75*
G02*
X78275200Y-92125500I-50000J0D01*
G01*
X77275200Y-92125500D01*
G75*
G02*
X77225200Y-92075500I0J50000D01*
G01*
G37*
G36*
G01*
X71225200Y-92075500D02*
X71225200Y-91375500D01*
G75*
G02*
X71275200Y-91325500I50000J0D01*
G01*
X72275200Y-91325500D01*
G75*
G02*
X72325200Y-91375500I0J-50000D01*
G01*
X72325200Y-92075500D01*
G75*
G02*
X72275200Y-92125500I-50000J0D01*
G01*
X71275200Y-92125500D01*
G75*
G02*
X71225200Y-92075500I0J50000D01*
G01*
G37*
G36*
G01*
X77225200Y-88375500D02*
X77225200Y-87675500D01*
G75*
G02*
X77275200Y-87625500I50000J0D01*
G01*
X78275200Y-87625500D01*
G75*
G02*
X78325200Y-87675500I0J-50000D01*
G01*
X78325200Y-88375500D01*
G75*
G02*
X78275200Y-88425500I-50000J0D01*
G01*
X77275200Y-88425500D01*
G75*
G02*
X77225200Y-88375500I0J50000D01*
G01*
G37*
G36*
G01*
X71225200Y-88375500D02*
X71225200Y-87675500D01*
G75*
G02*
X71275200Y-87625500I50000J0D01*
G01*
X72275200Y-87625500D01*
G75*
G02*
X72325200Y-87675500I0J-50000D01*
G01*
X72325200Y-88375500D01*
G75*
G02*
X72275200Y-88425500I-50000J0D01*
G01*
X71275200Y-88425500D01*
G75*
G02*
X71225200Y-88375500I0J50000D01*
G01*
G37*
X78117840Y-77005960D03*
X75617840Y-74505960D03*
X80617840Y-74505960D03*
X78117840Y-102948240D03*
X80617840Y-105448240D03*
X75617840Y-105448240D03*
X84943460Y-97442160D03*
X82443460Y-99942160D03*
X82443460Y-94942160D03*
G36*
G01*
X82562500Y-105218260D02*
X83426500Y-105218260D01*
G75*
G02*
X83476500Y-105268260I0J-50000D01*
G01*
X83476500Y-106055260D01*
G75*
G02*
X83426500Y-106105260I-50000J0D01*
G01*
X82562500Y-106105260D01*
G75*
G02*
X82512500Y-106055260I0J50000D01*
G01*
X82512500Y-105268260D01*
G75*
G02*
X82562500Y-105218260I50000J0D01*
G01*
G37*
G36*
G01*
X82562500Y-103668260D02*
X83426500Y-103668260D01*
G75*
G02*
X83476500Y-103718260I0J-50000D01*
G01*
X83476500Y-104505260D01*
G75*
G02*
X83426500Y-104555260I-50000J0D01*
G01*
X82562500Y-104555260D01*
G75*
G02*
X82512500Y-104505260I0J50000D01*
G01*
X82512500Y-103718260D01*
G75*
G02*
X82562500Y-103668260I50000J0D01*
G01*
G37*
G36*
G01*
X73067980Y-74753500D02*
X73931980Y-74753500D01*
G75*
G02*
X73981980Y-74803500I0J-50000D01*
G01*
X73981980Y-75590500D01*
G75*
G02*
X73931980Y-75640500I-50000J0D01*
G01*
X73067980Y-75640500D01*
G75*
G02*
X73017980Y-75590500I0J50000D01*
G01*
X73017980Y-74803500D01*
G75*
G02*
X73067980Y-74753500I50000J0D01*
G01*
G37*
G36*
G01*
X73067980Y-73203500D02*
X73931980Y-73203500D01*
G75*
G02*
X73981980Y-73253500I0J-50000D01*
G01*
X73981980Y-74040500D01*
G75*
G02*
X73931980Y-74090500I-50000J0D01*
G01*
X73067980Y-74090500D01*
G75*
G02*
X73017980Y-74040500I0J50000D01*
G01*
X73017980Y-73253500D01*
G75*
G02*
X73067980Y-73203500I50000J0D01*
G01*
G37*
G36*
G01*
X70092600Y-84772700D02*
X70092600Y-83908700D01*
G75*
G02*
X70142600Y-83858700I50000J0D01*
G01*
X70929600Y-83858700D01*
G75*
G02*
X70979600Y-83908700I0J-50000D01*
G01*
X70979600Y-84772700D01*
G75*
G02*
X70929600Y-84822700I-50000J0D01*
G01*
X70142600Y-84822700D01*
G75*
G02*
X70092600Y-84772700I0J50000D01*
G01*
G37*
G36*
G01*
X68542600Y-84772700D02*
X68542600Y-83908700D01*
G75*
G02*
X68592600Y-83858700I50000J0D01*
G01*
X69379600Y-83858700D01*
G75*
G02*
X69429600Y-83908700I0J-50000D01*
G01*
X69429600Y-84772700D01*
G75*
G02*
X69379600Y-84822700I-50000J0D01*
G01*
X68592600Y-84822700D01*
G75*
G02*
X68542600Y-84772700I0J50000D01*
G01*
G37*
G36*
G01*
X69937600Y-95747640D02*
X69937600Y-96611640D01*
G75*
G02*
X69887600Y-96661640I-50000J0D01*
G01*
X69100600Y-96661640D01*
G75*
G02*
X69050600Y-96611640I0J50000D01*
G01*
X69050600Y-95747640D01*
G75*
G02*
X69100600Y-95697640I50000J0D01*
G01*
X69887600Y-95697640D01*
G75*
G02*
X69937600Y-95747640I0J-50000D01*
G01*
G37*
G36*
G01*
X71487600Y-95747640D02*
X71487600Y-96611640D01*
G75*
G02*
X71437600Y-96661640I-50000J0D01*
G01*
X70650600Y-96661640D01*
G75*
G02*
X70600600Y-96611640I0J50000D01*
G01*
X70600600Y-95747640D01*
G75*
G02*
X70650600Y-95697640I50000J0D01*
G01*
X71437600Y-95697640D01*
G75*
G02*
X71487600Y-95747640I0J-50000D01*
G01*
G37*
G36*
G01*
X73329600Y-106198700D02*
X74193600Y-106198700D01*
G75*
G02*
X74243600Y-106248700I0J-50000D01*
G01*
X74243600Y-107035700D01*
G75*
G02*
X74193600Y-107085700I-50000J0D01*
G01*
X73329600Y-107085700D01*
G75*
G02*
X73279600Y-107035700I0J50000D01*
G01*
X73279600Y-106248700D01*
G75*
G02*
X73329600Y-106198700I50000J0D01*
G01*
G37*
G36*
G01*
X73329600Y-104648700D02*
X74193600Y-104648700D01*
G75*
G02*
X74243600Y-104698700I0J-50000D01*
G01*
X74243600Y-105485700D01*
G75*
G02*
X74193600Y-105535700I-50000J0D01*
G01*
X73329600Y-105535700D01*
G75*
G02*
X73279600Y-105485700I0J50000D01*
G01*
X73279600Y-104698700D01*
G75*
G02*
X73329600Y-104648700I50000J0D01*
G01*
G37*
G36*
G01*
X76724480Y-80286660D02*
X76724480Y-81150660D01*
G75*
G02*
X76674480Y-81200660I-50000J0D01*
G01*
X75887480Y-81200660D01*
G75*
G02*
X75837480Y-81150660I0J50000D01*
G01*
X75837480Y-80286660D01*
G75*
G02*
X75887480Y-80236660I50000J0D01*
G01*
X76674480Y-80236660D01*
G75*
G02*
X76724480Y-80286660I0J-50000D01*
G01*
G37*
G36*
G01*
X78274480Y-80286660D02*
X78274480Y-81150660D01*
G75*
G02*
X78224480Y-81200660I-50000J0D01*
G01*
X77437480Y-81200660D01*
G75*
G02*
X77387480Y-81150660I0J50000D01*
G01*
X77387480Y-80286660D01*
G75*
G02*
X77437480Y-80236660I50000J0D01*
G01*
X78224480Y-80236660D01*
G75*
G02*
X78274480Y-80286660I0J-50000D01*
G01*
G37*
G36*
G01*
X75390980Y-100842880D02*
X75390980Y-101706880D01*
G75*
G02*
X75340980Y-101756880I-50000J0D01*
G01*
X74553980Y-101756880D01*
G75*
G02*
X74503980Y-101706880I0J50000D01*
G01*
X74503980Y-100842880D01*
G75*
G02*
X74553980Y-100792880I50000J0D01*
G01*
X75340980Y-100792880D01*
G75*
G02*
X75390980Y-100842880I0J-50000D01*
G01*
G37*
G36*
G01*
X76940980Y-100842880D02*
X76940980Y-101706880D01*
G75*
G02*
X76890980Y-101756880I-50000J0D01*
G01*
X76103980Y-101756880D01*
G75*
G02*
X76053980Y-101706880I0J50000D01*
G01*
X76053980Y-100842880D01*
G75*
G02*
X76103980Y-100792880I50000J0D01*
G01*
X76890980Y-100792880D01*
G75*
G02*
X76940980Y-100842880I0J-50000D01*
G01*
G37*
G36*
G01*
X69434680Y-85237120D02*
X69434680Y-86101120D01*
G75*
G02*
X69384680Y-86151120I-50000J0D01*
G01*
X68597680Y-86151120D01*
G75*
G02*
X68547680Y-86101120I0J50000D01*
G01*
X68547680Y-85237120D01*
G75*
G02*
X68597680Y-85187120I50000J0D01*
G01*
X69384680Y-85187120D01*
G75*
G02*
X69434680Y-85237120I0J-50000D01*
G01*
G37*
G36*
G01*
X70984680Y-85237120D02*
X70984680Y-86101120D01*
G75*
G02*
X70934680Y-86151120I-50000J0D01*
G01*
X70147680Y-86151120D01*
G75*
G02*
X70097680Y-86101120I0J50000D01*
G01*
X70097680Y-85237120D01*
G75*
G02*
X70147680Y-85187120I50000J0D01*
G01*
X70934680Y-85187120D01*
G75*
G02*
X70984680Y-85237120I0J-50000D01*
G01*
G37*
G36*
G01*
X70582820Y-95260360D02*
X70582820Y-94396360D01*
G75*
G02*
X70632820Y-94346360I50000J0D01*
G01*
X71419820Y-94346360D01*
G75*
G02*
X71469820Y-94396360I0J-50000D01*
G01*
X71469820Y-95260360D01*
G75*
G02*
X71419820Y-95310360I-50000J0D01*
G01*
X70632820Y-95310360D01*
G75*
G02*
X70582820Y-95260360I0J50000D01*
G01*
G37*
G36*
G01*
X69032820Y-95260360D02*
X69032820Y-94396360D01*
G75*
G02*
X69082820Y-94346360I50000J0D01*
G01*
X69869820Y-94346360D01*
G75*
G02*
X69919820Y-94396360I0J-50000D01*
G01*
X69919820Y-95260360D01*
G75*
G02*
X69869820Y-95310360I-50000J0D01*
G01*
X69082820Y-95310360D01*
G75*
G02*
X69032820Y-95260360I0J50000D01*
G01*
G37*
G36*
G01*
X86122480Y-90588900D02*
X86122480Y-91452900D01*
G75*
G02*
X86072480Y-91502900I-50000J0D01*
G01*
X85285480Y-91502900D01*
G75*
G02*
X85235480Y-91452900I0J50000D01*
G01*
X85235480Y-90588900D01*
G75*
G02*
X85285480Y-90538900I50000J0D01*
G01*
X86072480Y-90538900D01*
G75*
G02*
X86122480Y-90588900I0J-50000D01*
G01*
G37*
G36*
G01*
X87672480Y-90588900D02*
X87672480Y-91452900D01*
G75*
G02*
X87622480Y-91502900I-50000J0D01*
G01*
X86835480Y-91502900D01*
G75*
G02*
X86785480Y-91452900I0J50000D01*
G01*
X86785480Y-90588900D01*
G75*
G02*
X86835480Y-90538900I50000J0D01*
G01*
X87622480Y-90538900D01*
G75*
G02*
X87672480Y-90588900I0J-50000D01*
G01*
G37*
G36*
G01*
X93062860Y-86950580D02*
X93926860Y-86950580D01*
G75*
G02*
X93976860Y-87000580I0J-50000D01*
G01*
X93976860Y-87787580D01*
G75*
G02*
X93926860Y-87837580I-50000J0D01*
G01*
X93062860Y-87837580D01*
G75*
G02*
X93012860Y-87787580I0J50000D01*
G01*
X93012860Y-87000580D01*
G75*
G02*
X93062860Y-86950580I50000J0D01*
G01*
G37*
G36*
G01*
X93062860Y-85400580D02*
X93926860Y-85400580D01*
G75*
G02*
X93976860Y-85450580I0J-50000D01*
G01*
X93976860Y-86237580D01*
G75*
G02*
X93926860Y-86287580I-50000J0D01*
G01*
X93062860Y-86287580D01*
G75*
G02*
X93012860Y-86237580I0J50000D01*
G01*
X93012860Y-85450580D01*
G75*
G02*
X93062860Y-85400580I50000J0D01*
G01*
G37*
G36*
G01*
X98887220Y-89331500D02*
X99751220Y-89331500D01*
G75*
G02*
X99801220Y-89381500I0J-50000D01*
G01*
X99801220Y-90168500D01*
G75*
G02*
X99751220Y-90218500I-50000J0D01*
G01*
X98887220Y-90218500D01*
G75*
G02*
X98837220Y-90168500I0J50000D01*
G01*
X98837220Y-89381500D01*
G75*
G02*
X98887220Y-89331500I50000J0D01*
G01*
G37*
G36*
G01*
X98887220Y-87781500D02*
X99751220Y-87781500D01*
G75*
G02*
X99801220Y-87831500I0J-50000D01*
G01*
X99801220Y-88618500D01*
G75*
G02*
X99751220Y-88668500I-50000J0D01*
G01*
X98887220Y-88668500D01*
G75*
G02*
X98837220Y-88618500I0J50000D01*
G01*
X98837220Y-87831500D01*
G75*
G02*
X98887220Y-87781500I50000J0D01*
G01*
G37*
G36*
G01*
X100394940Y-85420540D02*
X100394940Y-84556540D01*
G75*
G02*
X100444940Y-84506540I50000J0D01*
G01*
X101231940Y-84506540D01*
G75*
G02*
X101281940Y-84556540I0J-50000D01*
G01*
X101281940Y-85420540D01*
G75*
G02*
X101231940Y-85470540I-50000J0D01*
G01*
X100444940Y-85470540D01*
G75*
G02*
X100394940Y-85420540I0J50000D01*
G01*
G37*
G36*
G01*
X98844940Y-85420540D02*
X98844940Y-84556540D01*
G75*
G02*
X98894940Y-84506540I50000J0D01*
G01*
X99681940Y-84506540D01*
G75*
G02*
X99731940Y-84556540I0J-50000D01*
G01*
X99731940Y-85420540D01*
G75*
G02*
X99681940Y-85470540I-50000J0D01*
G01*
X98894940Y-85470540D01*
G75*
G02*
X98844940Y-85420540I0J50000D01*
G01*
G37*
G36*
G01*
X99731940Y-83220500D02*
X99731940Y-84084500D01*
G75*
G02*
X99681940Y-84134500I-50000J0D01*
G01*
X98894940Y-84134500D01*
G75*
G02*
X98844940Y-84084500I0J50000D01*
G01*
X98844940Y-83220500D01*
G75*
G02*
X98894940Y-83170500I50000J0D01*
G01*
X99681940Y-83170500D01*
G75*
G02*
X99731940Y-83220500I0J-50000D01*
G01*
G37*
G36*
G01*
X101281940Y-83220500D02*
X101281940Y-84084500D01*
G75*
G02*
X101231940Y-84134500I-50000J0D01*
G01*
X100444940Y-84134500D01*
G75*
G02*
X100394940Y-84084500I0J50000D01*
G01*
X100394940Y-83220500D01*
G75*
G02*
X100444940Y-83170500I50000J0D01*
G01*
X101231940Y-83170500D01*
G75*
G02*
X101281940Y-83220500I0J-50000D01*
G01*
G37*
G36*
G01*
X100384780Y-81425120D02*
X100384780Y-80561120D01*
G75*
G02*
X100434780Y-80511120I50000J0D01*
G01*
X101221780Y-80511120D01*
G75*
G02*
X101271780Y-80561120I0J-50000D01*
G01*
X101271780Y-81425120D01*
G75*
G02*
X101221780Y-81475120I-50000J0D01*
G01*
X100434780Y-81475120D01*
G75*
G02*
X100384780Y-81425120I0J50000D01*
G01*
G37*
G36*
G01*
X98834780Y-81425120D02*
X98834780Y-80561120D01*
G75*
G02*
X98884780Y-80511120I50000J0D01*
G01*
X99671780Y-80511120D01*
G75*
G02*
X99721780Y-80561120I0J-50000D01*
G01*
X99721780Y-81425120D01*
G75*
G02*
X99671780Y-81475120I-50000J0D01*
G01*
X98884780Y-81475120D01*
G75*
G02*
X98834780Y-81425120I0J50000D01*
G01*
G37*
G36*
G01*
X99731940Y-81884460D02*
X99731940Y-82748460D01*
G75*
G02*
X99681940Y-82798460I-50000J0D01*
G01*
X98894940Y-82798460D01*
G75*
G02*
X98844940Y-82748460I0J50000D01*
G01*
X98844940Y-81884460D01*
G75*
G02*
X98894940Y-81834460I50000J0D01*
G01*
X99681940Y-81834460D01*
G75*
G02*
X99731940Y-81884460I0J-50000D01*
G01*
G37*
G36*
G01*
X101281940Y-81884460D02*
X101281940Y-82748460D01*
G75*
G02*
X101231940Y-82798460I-50000J0D01*
G01*
X100444940Y-82798460D01*
G75*
G02*
X100394940Y-82748460I0J50000D01*
G01*
X100394940Y-81884460D01*
G75*
G02*
X100444940Y-81834460I50000J0D01*
G01*
X101231940Y-81834460D01*
G75*
G02*
X101281940Y-81884460I0J-50000D01*
G01*
G37*
G36*
G01*
X86333720Y-81999200D02*
X87733720Y-81999200D01*
G75*
G02*
X87783720Y-82049200I0J-50000D01*
G01*
X87783720Y-83249200D01*
G75*
G02*
X87733720Y-83299200I-50000J0D01*
G01*
X86333720Y-83299200D01*
G75*
G02*
X86283720Y-83249200I0J50000D01*
G01*
X86283720Y-82049200D01*
G75*
G02*
X86333720Y-81999200I50000J0D01*
G01*
G37*
G36*
G01*
X88933720Y-80899200D02*
X90333720Y-80899200D01*
G75*
G02*
X90383720Y-80949200I0J-50000D01*
G01*
X90383720Y-82149200D01*
G75*
G02*
X90333720Y-82199200I-50000J0D01*
G01*
X88933720Y-82199200D01*
G75*
G02*
X88883720Y-82149200I0J50000D01*
G01*
X88883720Y-80949200D01*
G75*
G02*
X88933720Y-80899200I50000J0D01*
G01*
G37*
G36*
G01*
X88933720Y-83099200D02*
X90333720Y-83099200D01*
G75*
G02*
X90383720Y-83149200I0J-50000D01*
G01*
X90383720Y-84349200D01*
G75*
G02*
X90333720Y-84399200I-50000J0D01*
G01*
X88933720Y-84399200D01*
G75*
G02*
X88883720Y-84349200I0J50000D01*
G01*
X88883720Y-83149200D01*
G75*
G02*
X88933720Y-83099200I50000J0D01*
G01*
G37*
G36*
G01*
X122003260Y-83617040D02*
X123503260Y-83617040D01*
G75*
G02*
X123553260Y-83667040I0J-50000D01*
G01*
X123553260Y-85167040D01*
G75*
G02*
X123503260Y-85217040I-50000J0D01*
G01*
X122003260Y-85217040D01*
G75*
G02*
X121953260Y-85167040I0J50000D01*
G01*
X121953260Y-83667040D01*
G75*
G02*
X122003260Y-83617040I50000J0D01*
G01*
G37*
X122753260Y-86957040D03*
X122753260Y-89497040D03*
X122753260Y-92037040D03*
X122753260Y-94577040D03*
X122753260Y-97117040D03*
G36*
G01*
X77171500Y-79817520D02*
X77171500Y-78617520D01*
G75*
G02*
X77221500Y-78567520I50000J0D01*
G01*
X78421500Y-78567520D01*
G75*
G02*
X78471500Y-78617520I0J-50000D01*
G01*
X78471500Y-79817520D01*
G75*
G02*
X78421500Y-79867520I-50000J0D01*
G01*
X77221500Y-79867520D01*
G75*
G02*
X77171500Y-79817520I0J50000D01*
G01*
G37*
G36*
G01*
X75071500Y-79817520D02*
X75071500Y-78617520D01*
G75*
G02*
X75121500Y-78567520I50000J0D01*
G01*
X76321500Y-78567520D01*
G75*
G02*
X76371500Y-78617520I0J-50000D01*
G01*
X76371500Y-79817520D01*
G75*
G02*
X76321500Y-79867520I-50000J0D01*
G01*
X75121500Y-79867520D01*
G75*
G02*
X75071500Y-79817520I0J50000D01*
G01*
G37*
G36*
G01*
X75827840Y-100322940D02*
X75827840Y-99122940D01*
G75*
G02*
X75877840Y-99072940I50000J0D01*
G01*
X77077840Y-99072940D01*
G75*
G02*
X77127840Y-99122940I0J-50000D01*
G01*
X77127840Y-100322940D01*
G75*
G02*
X77077840Y-100372940I-50000J0D01*
G01*
X75877840Y-100372940D01*
G75*
G02*
X75827840Y-100322940I0J50000D01*
G01*
G37*
G36*
G01*
X73727840Y-100322940D02*
X73727840Y-99122940D01*
G75*
G02*
X73777840Y-99072940I50000J0D01*
G01*
X74977840Y-99072940D01*
G75*
G02*
X75027840Y-99122940I0J-50000D01*
G01*
X75027840Y-100322940D01*
G75*
G02*
X74977840Y-100372940I-50000J0D01*
G01*
X73777840Y-100372940D01*
G75*
G02*
X73727840Y-100322940I0J50000D01*
G01*
G37*
G36*
G01*
X86914940Y-93116960D02*
X86914940Y-91916960D01*
G75*
G02*
X86964940Y-91866960I50000J0D01*
G01*
X88164940Y-91866960D01*
G75*
G02*
X88214940Y-91916960I0J-50000D01*
G01*
X88214940Y-93116960D01*
G75*
G02*
X88164940Y-93166960I-50000J0D01*
G01*
X86964940Y-93166960D01*
G75*
G02*
X86914940Y-93116960I0J50000D01*
G01*
G37*
G36*
G01*
X84814940Y-93116960D02*
X84814940Y-91916960D01*
G75*
G02*
X84864940Y-91866960I50000J0D01*
G01*
X86064940Y-91866960D01*
G75*
G02*
X86114940Y-91916960I0J-50000D01*
G01*
X86114940Y-93116960D01*
G75*
G02*
X86064940Y-93166960I-50000J0D01*
G01*
X84864940Y-93166960D01*
G75*
G02*
X84814940Y-93116960I0J50000D01*
G01*
G37*
G36*
G01*
X83994700Y-105025140D02*
X85194700Y-105025140D01*
G75*
G02*
X85244700Y-105075140I0J-50000D01*
G01*
X85244700Y-106275140D01*
G75*
G02*
X85194700Y-106325140I-50000J0D01*
G01*
X83994700Y-106325140D01*
G75*
G02*
X83944700Y-106275140I0J50000D01*
G01*
X83944700Y-105075140D01*
G75*
G02*
X83994700Y-105025140I50000J0D01*
G01*
G37*
G36*
G01*
X83994700Y-102925140D02*
X85194700Y-102925140D01*
G75*
G02*
X85244700Y-102975140I0J-50000D01*
G01*
X85244700Y-104175140D01*
G75*
G02*
X85194700Y-104225140I-50000J0D01*
G01*
X83994700Y-104225140D01*
G75*
G02*
X83944700Y-104175140I0J50000D01*
G01*
X83944700Y-102975140D01*
G75*
G02*
X83994700Y-102925140I50000J0D01*
G01*
G37*
G36*
G01*
X91414340Y-83771580D02*
X92634340Y-83771580D01*
G75*
G02*
X92684340Y-83821580I0J-50000D01*
G01*
X92684340Y-84731580D01*
G75*
G02*
X92634340Y-84781580I-50000J0D01*
G01*
X91414340Y-84781580D01*
G75*
G02*
X91364340Y-84731580I0J50000D01*
G01*
X91364340Y-83821580D01*
G75*
G02*
X91414340Y-83771580I50000J0D01*
G01*
G37*
G36*
G01*
X91414340Y-80501580D02*
X92634340Y-80501580D01*
G75*
G02*
X92684340Y-80551580I0J-50000D01*
G01*
X92684340Y-81461580D01*
G75*
G02*
X92634340Y-81511580I-50000J0D01*
G01*
X91414340Y-81511580D01*
G75*
G02*
X91364340Y-81461580I0J50000D01*
G01*
X91364340Y-80551580D01*
G75*
G02*
X91414340Y-80501580I50000J0D01*
G01*
G37*
G36*
G01*
X86152400Y-87324580D02*
X86152400Y-85324580D01*
G75*
G02*
X86202400Y-85274580I50000J0D01*
G01*
X88202400Y-85274580D01*
G75*
G02*
X88252400Y-85324580I0J-50000D01*
G01*
X88252400Y-87324580D01*
G75*
G02*
X88202400Y-87374580I-50000J0D01*
G01*
X86202400Y-87374580D01*
G75*
G02*
X86152400Y-87324580I0J50000D01*
G01*
G37*
G36*
G01*
X90152400Y-87324580D02*
X90152400Y-85324580D01*
G75*
G02*
X90202400Y-85274580I50000J0D01*
G01*
X92202400Y-85274580D01*
G75*
G02*
X92252400Y-85324580I0J-50000D01*
G01*
X92252400Y-87324580D01*
G75*
G02*
X92202400Y-87374580I-50000J0D01*
G01*
X90202400Y-87374580D01*
G75*
G02*
X90152400Y-87324580I0J50000D01*
G01*
G37*
G36*
G01*
X86810880Y-94445020D02*
X86810880Y-93581020D01*
G75*
G02*
X86860880Y-93531020I50000J0D01*
G01*
X87647880Y-93531020D01*
G75*
G02*
X87697880Y-93581020I0J-50000D01*
G01*
X87697880Y-94445020D01*
G75*
G02*
X87647880Y-94495020I-50000J0D01*
G01*
X86860880Y-94495020D01*
G75*
G02*
X86810880Y-94445020I0J50000D01*
G01*
G37*
G36*
G01*
X85260880Y-94445020D02*
X85260880Y-93581020D01*
G75*
G02*
X85310880Y-93531020I50000J0D01*
G01*
X86097880Y-93531020D01*
G75*
G02*
X86147880Y-93581020I0J-50000D01*
G01*
X86147880Y-94445020D01*
G75*
G02*
X86097880Y-94495020I-50000J0D01*
G01*
X85310880Y-94495020D01*
G75*
G02*
X85260880Y-94445020I0J50000D01*
G01*
G37*
G36*
G01*
X85644420Y-85456180D02*
X84444420Y-85456180D01*
G75*
G02*
X84394420Y-85406180I0J50000D01*
G01*
X84394420Y-84266180D01*
G75*
G02*
X84444420Y-84216180I50000J0D01*
G01*
X85644420Y-84216180D01*
G75*
G02*
X85694420Y-84266180I0J-50000D01*
G01*
X85694420Y-85406180D01*
G75*
G02*
X85644420Y-85456180I-50000J0D01*
G01*
G37*
G36*
G01*
X85644420Y-87366180D02*
X84444420Y-87366180D01*
G75*
G02*
X84394420Y-87316180I0J50000D01*
G01*
X84394420Y-86176180D01*
G75*
G02*
X84444420Y-86126180I50000J0D01*
G01*
X85644420Y-86126180D01*
G75*
G02*
X85694420Y-86176180I0J-50000D01*
G01*
X85694420Y-87316180D01*
G75*
G02*
X85644420Y-87366180I-50000J0D01*
G01*
G37*
G36*
G01*
X100731180Y-87315080D02*
X100731180Y-86115080D01*
G75*
G02*
X100781180Y-86065080I50000J0D01*
G01*
X101921180Y-86065080D01*
G75*
G02*
X101971180Y-86115080I0J-50000D01*
G01*
X101971180Y-87315080D01*
G75*
G02*
X101921180Y-87365080I-50000J0D01*
G01*
X100781180Y-87365080D01*
G75*
G02*
X100731180Y-87315080I0J50000D01*
G01*
G37*
G36*
G01*
X98821180Y-87315080D02*
X98821180Y-86115080D01*
G75*
G02*
X98871180Y-86065080I50000J0D01*
G01*
X100011180Y-86065080D01*
G75*
G02*
X100061180Y-86115080I0J-50000D01*
G01*
X100061180Y-87315080D01*
G75*
G02*
X100011180Y-87365080I-50000J0D01*
G01*
X98871180Y-87365080D01*
G75*
G02*
X98821180Y-87315080I0J50000D01*
G01*
G37*
G36*
G01*
X94393820Y-86919800D02*
X95257820Y-86919800D01*
G75*
G02*
X95307820Y-86969800I0J-50000D01*
G01*
X95307820Y-87756800D01*
G75*
G02*
X95257820Y-87806800I-50000J0D01*
G01*
X94393820Y-87806800D01*
G75*
G02*
X94343820Y-87756800I0J50000D01*
G01*
X94343820Y-86969800D01*
G75*
G02*
X94393820Y-86919800I50000J0D01*
G01*
G37*
G36*
G01*
X94393820Y-85369800D02*
X95257820Y-85369800D01*
G75*
G02*
X95307820Y-85419800I0J-50000D01*
G01*
X95307820Y-86206800D01*
G75*
G02*
X95257820Y-86256800I-50000J0D01*
G01*
X94393820Y-86256800D01*
G75*
G02*
X94343820Y-86206800I0J50000D01*
G01*
X94343820Y-85419800D01*
G75*
G02*
X94393820Y-85369800I50000J0D01*
G01*
G37*
G36*
G01*
X101087260Y-88668500D02*
X100223260Y-88668500D01*
G75*
G02*
X100173260Y-88618500I0J50000D01*
G01*
X100173260Y-87831500D01*
G75*
G02*
X100223260Y-87781500I50000J0D01*
G01*
X101087260Y-87781500D01*
G75*
G02*
X101137260Y-87831500I0J-50000D01*
G01*
X101137260Y-88618500D01*
G75*
G02*
X101087260Y-88668500I-50000J0D01*
G01*
G37*
G36*
G01*
X101087260Y-90218500D02*
X100223260Y-90218500D01*
G75*
G02*
X100173260Y-90168500I0J50000D01*
G01*
X100173260Y-89381500D01*
G75*
G02*
X100223260Y-89331500I50000J0D01*
G01*
X101087260Y-89331500D01*
G75*
G02*
X101137260Y-89381500I0J-50000D01*
G01*
X101137260Y-90168500D01*
G75*
G02*
X101087260Y-90218500I-50000J0D01*
G01*
G37*
G36*
G01*
X93392840Y-82402540D02*
X94592840Y-82402540D01*
G75*
G02*
X94642840Y-82452540I0J-50000D01*
G01*
X94642840Y-83592540D01*
G75*
G02*
X94592840Y-83642540I-50000J0D01*
G01*
X93392840Y-83642540D01*
G75*
G02*
X93342840Y-83592540I0J50000D01*
G01*
X93342840Y-82452540D01*
G75*
G02*
X93392840Y-82402540I50000J0D01*
G01*
G37*
G36*
G01*
X93392840Y-80492540D02*
X94592840Y-80492540D01*
G75*
G02*
X94642840Y-80542540I0J-50000D01*
G01*
X94642840Y-81682540D01*
G75*
G02*
X94592840Y-81732540I-50000J0D01*
G01*
X93392840Y-81732540D01*
G75*
G02*
X93342840Y-81682540I0J50000D01*
G01*
X93342840Y-80542540D01*
G75*
G02*
X93392840Y-80492540I50000J0D01*
G01*
G37*
D13*
X75000000Y-95800000D03*
X75000000Y-84200000D03*
D14*
X125500000Y-105000000D03*
X90500000Y-105000000D03*
X90500000Y-75000000D03*
X125500000Y-75000000D03*
D15*
G36*
X97676132Y-85308060D02*
G01*
X97676400Y-85309060D01*
X97676400Y-86359060D01*
X97675400Y-86360792D01*
X97674400Y-86361060D01*
X97524400Y-86361060D01*
X97522668Y-86360060D01*
X97522400Y-86359060D01*
X97522400Y-85311060D01*
X97026400Y-85311060D01*
X97026400Y-86359060D01*
X97025400Y-86360792D01*
X97024400Y-86361060D01*
X96874400Y-86361060D01*
X96872668Y-86360060D01*
X96872400Y-86359060D01*
X96872400Y-85311060D01*
X96376400Y-85311060D01*
X96376400Y-86359060D01*
X96375400Y-86360792D01*
X96374400Y-86361060D01*
X96224400Y-86361060D01*
X96222668Y-86360060D01*
X96222400Y-86359060D01*
X96222400Y-85309060D01*
X96223400Y-85307328D01*
X96224400Y-85307060D01*
X97674400Y-85307060D01*
X97676132Y-85308060D01*
G37*
G36*
X97676132Y-80508060D02*
G01*
X97676400Y-80509060D01*
X97676400Y-81559060D01*
X97675400Y-81560792D01*
X97674400Y-81561060D01*
X97524400Y-81561060D01*
X97522668Y-81560060D01*
X97522400Y-81559060D01*
X97522400Y-80511060D01*
X97026400Y-80511060D01*
X97026400Y-81559060D01*
X97025400Y-81560792D01*
X97024400Y-81561060D01*
X96874400Y-81561060D01*
X96872668Y-81560060D01*
X96872400Y-81559060D01*
X96872400Y-80511060D01*
X96376400Y-80511060D01*
X96376400Y-81559060D01*
X96375400Y-81560792D01*
X96374400Y-81561060D01*
X96224400Y-81561060D01*
X96222668Y-81560060D01*
X96222400Y-81559060D01*
X96222400Y-80509060D01*
X96223400Y-80507328D01*
X96224400Y-80507060D01*
X97674400Y-80507060D01*
X97676132Y-80508060D01*
G37*
M02*
