%TF.GenerationSoftware,KiCad,Pcbnew,(5.1.8-0-10_14)*%
%TF.CreationDate,2022-01-05T18:09:54+08:00*%
%TF.ProjectId,MicroMouse,4d696372-6f4d-46f7-9573-652e6b696361,rev?*%
%TF.SameCoordinates,Original*%
%TF.FileFunction,Paste,Bot*%
%TF.FilePolarity,Positive*%
%FSLAX46Y46*%
G04 Gerber Fmt 4.6, Leading zero omitted, Abs format (unit mm)*
G04 Created by KiCad (PCBNEW (5.1.8-0-10_14)) date 2022-01-05 18:09:54*
%MOMM*%
%LPD*%
G01*
G04 APERTURE LIST*
%ADD10R,0.787000X0.864000*%
%ADD11R,0.575000X1.140000*%
%ADD12R,0.500000X0.800000*%
%ADD13R,2.000000X0.600000*%
%ADD14R,0.700000X1.000000*%
%ADD15R,1.000000X0.700000*%
%ADD16R,0.864000X0.787000*%
%ADD17R,2.200000X1.000000*%
G04 APERTURE END LIST*
D10*
X96844960Y-99926280D03*
X98394960Y-99926280D03*
D11*
X114133880Y-103733600D03*
X114958880Y-103733600D03*
D12*
X92986960Y-91594900D03*
X94886960Y-91594900D03*
X93936960Y-91594900D03*
X92986960Y-93794900D03*
X94886960Y-93794900D03*
X93936960Y-93794900D03*
D13*
X101799800Y-97386280D03*
X101799800Y-96116280D03*
X101799800Y-94846280D03*
X101799800Y-93576280D03*
X101799800Y-92306280D03*
X101799800Y-91036280D03*
X101799800Y-89766280D03*
X101799800Y-98656280D03*
X101799800Y-99926280D03*
X101799800Y-101196280D03*
X101799800Y-102466280D03*
X101799800Y-103736280D03*
X101799800Y-105006280D03*
X101799800Y-106276280D03*
X111199800Y-106276280D03*
X111199800Y-105006280D03*
X111199800Y-103736280D03*
X111199800Y-102466280D03*
X111199800Y-101196280D03*
X111199800Y-99926280D03*
X111199800Y-98656280D03*
X111199800Y-89766280D03*
X111199800Y-91036280D03*
X111199800Y-92306280D03*
X111199800Y-93576280D03*
X111199800Y-94846280D03*
X111199800Y-96116280D03*
X111199800Y-97386280D03*
D14*
X100079560Y-80731760D03*
X100079560Y-74731760D03*
X96379560Y-80731760D03*
X96379560Y-74731760D03*
X116575100Y-75140700D03*
X116575100Y-81140700D03*
X120275100Y-75140700D03*
X120275100Y-81140700D03*
D15*
X114031160Y-78807840D03*
X108031160Y-78807840D03*
X114031160Y-82507840D03*
X108031160Y-82507840D03*
D14*
X105522780Y-80686040D03*
X105522780Y-74686040D03*
X101822780Y-80686040D03*
X101822780Y-74686040D03*
D15*
X114074340Y-72683900D03*
X108074340Y-72683900D03*
X114074340Y-76383900D03*
X108074340Y-76383900D03*
D14*
X117514760Y-99953820D03*
X117514760Y-105953820D03*
X121214760Y-99953820D03*
X121214760Y-105953820D03*
D10*
X114246360Y-102229920D03*
X115796360Y-102229920D03*
X109674500Y-87564100D03*
X111224500Y-87564100D03*
X111221960Y-86228060D03*
X109671960Y-86228060D03*
D16*
X91899880Y-80944560D03*
X91899880Y-82494560D03*
X90576540Y-82497100D03*
X90576540Y-80947100D03*
D10*
X125062420Y-80454640D03*
X123512420Y-80454640D03*
X125052260Y-81795760D03*
X123502260Y-81795760D03*
D17*
X94383220Y-86404160D03*
X99683220Y-86404160D03*
X99683220Y-84604160D03*
X94383220Y-84604160D03*
D16*
X113842940Y-94482760D03*
X113842940Y-96032760D03*
X114127280Y-105407160D03*
X114127280Y-106957160D03*
X115460780Y-105397000D03*
X115460780Y-106947000D03*
X90600000Y-91045000D03*
X90600000Y-92595000D03*
X115178980Y-94472900D03*
X115178980Y-96022900D03*
D10*
X96842420Y-98585160D03*
X98392420Y-98585160D03*
X125375000Y-99930000D03*
X123825000Y-99930000D03*
D16*
X116512480Y-94462440D03*
X116512480Y-96012440D03*
X94663400Y-79207200D03*
X94663400Y-80757200D03*
M02*
